<svg xmlns="http://www.w3.org/2000/svg" xmlns:xlink="http://www.w3.org/1999/xlink" width="2000" zoomAndPan="magnify" viewBox="0 0 1500 1499.999933" height="2000" preserveAspectRatio="xMidYMid meet" version="1.0"><defs><clipPath id="8f4ead551d"><path d="M 1021 661 L 1061 661 L 1061 702 L 1021 702 Z M 1021 661 " clip-rule="nonzero"/></clipPath><clipPath id="32438fc6a3"><path d="M 259.742188 712.535156 L 794.859375 260.484375 L 1240.136719 787.578125 L 705.019531 1239.628906 Z M 259.742188 712.535156 " clip-rule="nonzero"/></clipPath><clipPath id="71d38b757b"><path d="M 259.742188 712.535156 L 794.859375 260.484375 L 1240.136719 787.578125 L 705.019531 1239.628906 Z M 259.742188 712.535156 " clip-rule="nonzero"/></clipPath><clipPath id="43f245091e"><path d="M 259.742188 712.535156 L 794.859375 260.484375 L 1240.136719 787.578125 L 705.019531 1239.628906 Z M 259.742188 712.535156 " clip-rule="nonzero"/></clipPath><clipPath id="79af25f029"><path d="M 1025 610 L 1066 610 L 1066 650 L 1025 650 Z M 1025 610 " clip-rule="nonzero"/></clipPath><clipPath id="ba4a1994cf"><path d="M 259.742188 712.535156 L 794.859375 260.484375 L 1240.136719 787.578125 L 705.019531 1239.628906 Z M 259.742188 712.535156 " clip-rule="nonzero"/></clipPath><clipPath id="8811e7de15"><path d="M 259.742188 712.535156 L 794.859375 260.484375 L 1240.136719 787.578125 L 705.019531 1239.628906 Z M 259.742188 712.535156 " clip-rule="nonzero"/></clipPath><clipPath id="79e700d147"><path d="M 259.742188 712.535156 L 794.859375 260.484375 L 1240.136719 787.578125 L 705.019531 1239.628906 Z M 259.742188 712.535156 " clip-rule="nonzero"/></clipPath><clipPath id="de77c47c26"><path d="M 420 537 L 956 537 L 956 1073 L 420 1073 Z M 420 537 " clip-rule="nonzero"/></clipPath><clipPath id="2a51654649"><path d="M 259.742188 712.535156 L 794.859375 260.484375 L 1240.136719 787.578125 L 705.019531 1239.628906 Z M 259.742188 712.535156 " clip-rule="nonzero"/></clipPath><clipPath id="cceb08072e"><path d="M 259.742188 712.535156 L 794.859375 260.484375 L 1240.136719 787.578125 L 705.019531 1239.628906 Z M 259.742188 712.535156 " clip-rule="nonzero"/></clipPath><clipPath id="718b500c01"><path d="M 259.742188 712.535156 L 794.859375 260.484375 L 1240.136719 787.578125 L 705.019531 1239.628906 Z M 259.742188 712.535156 " clip-rule="nonzero"/></clipPath><clipPath id="1f65c5acfe"><path d="M 632 342 L 955 342 L 955 1127 L 632 1127 Z M 632 342 " clip-rule="nonzero"/></clipPath><clipPath id="945398236a"><path d="M 259.742188 712.535156 L 794.859375 260.484375 L 1240.136719 787.578125 L 705.019531 1239.628906 Z M 259.742188 712.535156 " clip-rule="nonzero"/></clipPath><clipPath id="35663b20de"><path d="M 259.742188 712.535156 L 794.859375 260.484375 L 1240.136719 787.578125 L 705.019531 1239.628906 Z M 259.742188 712.535156 " clip-rule="nonzero"/></clipPath><clipPath id="bbbc07262d"><path d="M 259.742188 712.535156 L 794.859375 260.484375 L 1240.136719 787.578125 L 705.019531 1239.628906 Z M 259.742188 712.535156 " clip-rule="nonzero"/></clipPath><clipPath id="c84aea9956"><path d="M 471 659 L 565 659 L 565 751 L 471 751 Z M 471 659 " clip-rule="nonzero"/></clipPath><clipPath id="4cd11a5a0a"><path d="M 259.742188 712.535156 L 794.859375 260.484375 L 1240.136719 787.578125 L 705.019531 1239.628906 Z M 259.742188 712.535156 " clip-rule="nonzero"/></clipPath><clipPath id="08a3db5c79"><path d="M 259.742188 712.535156 L 794.859375 260.484375 L 1240.136719 787.578125 L 705.019531 1239.628906 Z M 259.742188 712.535156 " clip-rule="nonzero"/></clipPath><clipPath id="b008edf667"><path d="M 259.742188 712.535156 L 794.859375 260.484375 L 1240.136719 787.578125 L 705.019531 1239.628906 Z M 259.742188 712.535156 " clip-rule="nonzero"/></clipPath><clipPath id="355e3fbd6b"><path d="M 996 747 L 1093 747 L 1093 839 L 996 839 Z M 996 747 " clip-rule="nonzero"/></clipPath><clipPath id="a4f3b93a40"><path d="M 259.742188 712.535156 L 794.859375 260.484375 L 1240.136719 787.578125 L 705.019531 1239.628906 Z M 259.742188 712.535156 " clip-rule="nonzero"/></clipPath><clipPath id="15098a8fab"><path d="M 259.742188 712.535156 L 794.859375 260.484375 L 1240.136719 787.578125 L 705.019531 1239.628906 Z M 259.742188 712.535156 " clip-rule="nonzero"/></clipPath><clipPath id="74f67c86bb"><path d="M 259.742188 712.535156 L 794.859375 260.484375 L 1240.136719 787.578125 L 705.019531 1239.628906 Z M 259.742188 712.535156 " clip-rule="nonzero"/></clipPath><clipPath id="49a7c018d7"><path d="M 883 661 L 963 661 L 963 739 L 883 739 Z M 883 661 " clip-rule="nonzero"/></clipPath><clipPath id="319dba78e0"><path d="M 259.742188 712.535156 L 794.859375 260.484375 L 1240.136719 787.578125 L 705.019531 1239.628906 Z M 259.742188 712.535156 " clip-rule="nonzero"/></clipPath><clipPath id="242aed89b9"><path d="M 259.742188 712.535156 L 794.859375 260.484375 L 1240.136719 787.578125 L 705.019531 1239.628906 Z M 259.742188 712.535156 " clip-rule="nonzero"/></clipPath><clipPath id="97c4f78cae"><path d="M 259.742188 712.535156 L 794.859375 260.484375 L 1240.136719 787.578125 L 705.019531 1239.628906 Z M 259.742188 712.535156 " clip-rule="nonzero"/></clipPath><clipPath id="b8fe471ac5"><path d="M 816 507 L 819 507 L 819 517 L 816 517 Z M 816 507 " clip-rule="nonzero"/></clipPath><clipPath id="d0fab8f341"><path d="M 259.742188 712.535156 L 794.859375 260.484375 L 1240.136719 787.578125 L 705.019531 1239.628906 Z M 259.742188 712.535156 " clip-rule="nonzero"/></clipPath><clipPath id="5a45429775"><path d="M 259.742188 712.535156 L 794.859375 260.484375 L 1240.136719 787.578125 L 705.019531 1239.628906 Z M 259.742188 712.535156 " clip-rule="nonzero"/></clipPath><clipPath id="2a5df81ab9"><path d="M 259.742188 712.535156 L 794.859375 260.484375 L 1240.136719 787.578125 L 705.019531 1239.628906 Z M 259.742188 712.535156 " clip-rule="nonzero"/></clipPath><clipPath id="2dbe46d453"><path d="M 632 342 L 955 342 L 955 1127 L 632 1127 Z M 632 342 " clip-rule="nonzero"/></clipPath><clipPath id="e9a3727013"><path d="M 259.742188 712.535156 L 794.859375 260.484375 L 1240.136719 787.578125 L 705.019531 1239.628906 Z M 259.742188 712.535156 " clip-rule="nonzero"/></clipPath><clipPath id="03bb548371"><path d="M 259.742188 712.535156 L 794.859375 260.484375 L 1240.136719 787.578125 L 705.019531 1239.628906 Z M 259.742188 712.535156 " clip-rule="nonzero"/></clipPath><clipPath id="4b96873ae5"><path d="M 259.742188 712.535156 L 794.859375 260.484375 L 1240.136719 787.578125 L 705.019531 1239.628906 Z M 259.742188 712.535156 " clip-rule="nonzero"/></clipPath><clipPath id="807ed516ba"><path d="M 461 332 L 1102 332 L 1102 1138 L 461 1138 Z M 461 332 " clip-rule="nonzero"/></clipPath><clipPath id="39437b205b"><path d="M 259.742188 712.535156 L 794.859375 260.484375 L 1240.136719 787.578125 L 705.019531 1239.628906 Z M 259.742188 712.535156 " clip-rule="nonzero"/></clipPath><clipPath id="a4a72f5476"><path d="M 259.742188 712.535156 L 794.859375 260.484375 L 1240.136719 787.578125 L 705.019531 1239.628906 Z M 259.742188 712.535156 " clip-rule="nonzero"/></clipPath><clipPath id="5e722577b9"><path d="M 259.742188 712.535156 L 794.859375 260.484375 L 1240.136719 787.578125 L 705.019531 1239.628906 Z M 259.742188 712.535156 " clip-rule="nonzero"/></clipPath><clipPath id="575d984447"><path d="M 547 487 L 588 487 L 588 528 L 547 528 Z M 547 487 " clip-rule="nonzero"/></clipPath><clipPath id="c081483bc3"><path d="M 259.742188 712.535156 L 794.859375 260.484375 L 1240.136719 787.578125 L 705.019531 1239.628906 Z M 259.742188 712.535156 " clip-rule="nonzero"/></clipPath><clipPath id="ced9363665"><path d="M 259.742188 712.535156 L 794.859375 260.484375 L 1240.136719 787.578125 L 705.019531 1239.628906 Z M 259.742188 712.535156 " clip-rule="nonzero"/></clipPath><clipPath id="ce88d5586d"><path d="M 259.742188 712.535156 L 794.859375 260.484375 L 1240.136719 787.578125 L 705.019531 1239.628906 Z M 259.742188 712.535156 " clip-rule="nonzero"/></clipPath><clipPath id="7e5e3cb668"><path d="M 411 597 L 458 597 L 458 644 L 411 644 Z M 411 597 " clip-rule="nonzero"/></clipPath><clipPath id="a33b970097"><path d="M 259.742188 712.535156 L 794.859375 260.484375 L 1240.136719 787.578125 L 705.019531 1239.628906 Z M 259.742188 712.535156 " clip-rule="nonzero"/></clipPath><clipPath id="a44f818c8a"><path d="M 259.742188 712.535156 L 794.859375 260.484375 L 1240.136719 787.578125 L 705.019531 1239.628906 Z M 259.742188 712.535156 " clip-rule="nonzero"/></clipPath><clipPath id="121e3b3f33"><path d="M 259.742188 712.535156 L 794.859375 260.484375 L 1240.136719 787.578125 L 705.019531 1239.628906 Z M 259.742188 712.535156 " clip-rule="nonzero"/></clipPath><clipPath id="41b77bb9fb"><path d="M 367 606 L 444 606 L 444 683 L 367 683 Z M 367 606 " clip-rule="nonzero"/></clipPath><clipPath id="d262876c0d"><path d="M 259.742188 712.535156 L 794.859375 260.484375 L 1240.136719 787.578125 L 705.019531 1239.628906 Z M 259.742188 712.535156 " clip-rule="nonzero"/></clipPath><clipPath id="d54699f021"><path d="M 259.742188 712.535156 L 794.859375 260.484375 L 1240.136719 787.578125 L 705.019531 1239.628906 Z M 259.742188 712.535156 " clip-rule="nonzero"/></clipPath><clipPath id="d28aa32308"><path d="M 259.742188 712.535156 L 794.859375 260.484375 L 1240.136719 787.578125 L 705.019531 1239.628906 Z M 259.742188 712.535156 " clip-rule="nonzero"/></clipPath></defs><g clip-path="url(#8f4ead551d)"><g clip-path="url(#32438fc6a3)"><g clip-path="url(#71d38b757b)"><g clip-path="url(#43f245091e)"><path fill="#68c423" d="M 1056.242188 669.003906 C 1056.660156 669.496094 1057.050781 670.007812 1057.417969 670.542969 C 1057.785156 671.074219 1058.125 671.625 1058.441406 672.191406 C 1058.753906 672.757812 1059.039062 673.335938 1059.292969 673.929688 C 1059.550781 674.523438 1059.777344 675.128906 1059.972656 675.746094 C 1060.167969 676.363281 1060.335938 676.984375 1060.46875 677.617188 C 1060.605469 678.25 1060.710938 678.886719 1060.78125 679.53125 C 1060.855469 680.175781 1060.894531 680.820312 1060.90625 681.464844 C 1060.914062 682.113281 1060.890625 682.757812 1060.835938 683.402344 C 1060.78125 684.046875 1060.699219 684.6875 1060.582031 685.324219 C 1060.464844 685.957031 1060.316406 686.585938 1060.136719 687.207031 C 1059.957031 687.832031 1059.75 688.441406 1059.511719 689.042969 C 1059.269531 689.644531 1059.003906 690.230469 1058.707031 690.804688 C 1058.410156 691.378906 1058.085938 691.9375 1057.734375 692.480469 C 1057.382812 693.023438 1057.003906 693.550781 1056.601562 694.054688 C 1056.199219 694.558594 1055.773438 695.046875 1055.320312 695.507812 C 1054.871094 695.972656 1054.398438 696.414062 1053.90625 696.832031 C 1053.410156 697.246094 1052.898438 697.640625 1052.367188 698.007812 C 1051.832031 698.375 1051.285156 698.714844 1050.71875 699.027344 C 1050.152344 699.339844 1049.570312 699.625 1048.976562 699.878906 C 1048.382812 700.136719 1047.777344 700.363281 1047.164062 700.558594 C 1046.546875 700.753906 1045.921875 700.921875 1045.289062 701.054688 C 1044.65625 701.191406 1044.019531 701.292969 1043.378906 701.367188 C 1042.734375 701.4375 1042.089844 701.480469 1041.445312 701.488281 C 1040.796875 701.5 1040.152344 701.476562 1039.507812 701.421875 C 1038.863281 701.367188 1038.222656 701.28125 1037.585938 701.164062 C 1036.949219 701.046875 1036.320312 700.898438 1035.699219 700.71875 C 1035.078125 700.539062 1034.46875 700.332031 1033.867188 700.09375 C 1033.265625 699.855469 1032.675781 699.585938 1032.101562 699.289062 C 1031.527344 698.992188 1030.96875 698.667969 1030.425781 698.316406 C 1029.882812 697.964844 1029.359375 697.585938 1028.851562 697.183594 C 1028.347656 696.78125 1027.863281 696.355469 1027.398438 695.902344 C 1026.933594 695.453125 1026.496094 694.980469 1026.078125 694.484375 C 1025.660156 693.992188 1025.269531 693.476562 1024.902344 692.945312 C 1024.535156 692.414062 1024.195312 691.863281 1023.878906 691.296875 C 1023.566406 690.730469 1023.28125 690.152344 1023.027344 689.558594 C 1022.769531 688.964844 1022.542969 688.359375 1022.347656 687.742188 C 1022.152344 687.125 1021.984375 686.5 1021.851562 685.867188 C 1021.714844 685.238281 1021.609375 684.597656 1021.539062 683.957031 C 1021.464844 683.3125 1021.425781 682.667969 1021.414062 682.023438 C 1021.40625 681.375 1021.429688 680.730469 1021.484375 680.085938 C 1021.539062 679.441406 1021.621094 678.800781 1021.738281 678.164062 C 1021.855469 677.527344 1022.003906 676.898438 1022.183594 676.277344 C 1022.363281 675.65625 1022.570312 675.046875 1022.808594 674.445312 C 1023.050781 673.84375 1023.316406 673.257812 1023.613281 672.679688 C 1023.910156 672.105469 1024.234375 671.546875 1024.585938 671.003906 C 1024.9375 670.460938 1025.316406 669.9375 1025.71875 669.433594 C 1026.121094 668.925781 1026.546875 668.441406 1027 667.980469 C 1027.449219 667.515625 1027.921875 667.074219 1028.414062 666.65625 C 1028.910156 666.238281 1029.421875 665.847656 1029.957031 665.480469 C 1030.488281 665.113281 1031.035156 664.773438 1031.601562 664.460938 C 1032.167969 664.148438 1032.75 663.863281 1033.34375 663.609375 C 1033.9375 663.351562 1034.542969 663.125 1035.15625 662.929688 C 1035.773438 662.734375 1036.398438 662.566406 1037.03125 662.433594 C 1037.664062 662.296875 1038.300781 662.191406 1038.941406 662.121094 C 1039.585938 662.046875 1040.230469 662.007812 1040.875 662 C 1041.523438 661.988281 1042.167969 662.011719 1042.8125 662.066406 C 1043.457031 662.121094 1044.097656 662.207031 1044.734375 662.324219 C 1045.371094 662.441406 1046 662.589844 1046.621094 662.769531 C 1047.242188 662.945312 1047.851562 663.15625 1048.453125 663.394531 C 1049.054688 663.632812 1049.644531 663.902344 1050.21875 664.199219 C 1050.792969 664.496094 1051.351562 664.820312 1051.894531 665.171875 C 1052.4375 665.523438 1052.960938 665.902344 1053.46875 666.304688 C 1053.972656 666.707031 1054.457031 667.132812 1054.921875 667.585938 C 1055.386719 668.035156 1055.824219 668.507812 1056.242188 669.003906 Z M 1056.242188 669.003906 " fill-opacity="1" fill-rule="nonzero"/></g></g></g></g><g clip-path="url(#79af25f029)"><g clip-path="url(#ba4a1994cf)"><g clip-path="url(#8811e7de15)"><g clip-path="url(#79e700d147)"><path fill="#68c423" d="M 1060.589844 617.28125 C 1061.007812 617.773438 1061.398438 618.289062 1061.765625 618.820312 C 1062.132812 619.355469 1062.472656 619.902344 1062.785156 620.46875 C 1063.097656 621.035156 1063.382812 621.617188 1063.636719 622.210938 C 1063.894531 622.804688 1064.121094 623.410156 1064.316406 624.023438 C 1064.515625 624.640625 1064.679688 625.265625 1064.816406 625.898438 C 1064.949219 626.53125 1065.054688 627.167969 1065.128906 627.808594 C 1065.199219 628.453125 1065.242188 629.097656 1065.25 629.746094 C 1065.257812 630.390625 1065.238281 631.035156 1065.183594 631.679688 C 1065.128906 632.324219 1065.042969 632.964844 1064.925781 633.601562 C 1064.808594 634.238281 1064.660156 634.867188 1064.480469 635.488281 C 1064.304688 636.109375 1064.09375 636.722656 1063.855469 637.320312 C 1063.617188 637.921875 1063.347656 638.511719 1063.050781 639.085938 C 1062.753906 639.660156 1062.429688 640.21875 1062.078125 640.761719 C 1061.726562 641.304688 1061.351562 641.828125 1060.949219 642.332031 C 1060.546875 642.839844 1060.117188 643.324219 1059.667969 643.789062 C 1059.214844 644.25 1058.746094 644.691406 1058.25 645.109375 C 1057.757812 645.527344 1057.242188 645.917969 1056.710938 646.285156 C 1056.179688 646.652344 1055.628906 646.992188 1055.0625 647.304688 C 1054.496094 647.617188 1053.917969 647.902344 1053.324219 648.160156 C 1052.730469 648.414062 1052.125 648.640625 1051.507812 648.835938 C 1050.890625 649.035156 1050.269531 649.199219 1049.636719 649.335938 C 1049.003906 649.46875 1048.367188 649.574219 1047.722656 649.644531 C 1047.082031 649.71875 1046.4375 649.757812 1045.789062 649.769531 C 1045.140625 649.777344 1044.496094 649.753906 1043.851562 649.699219 C 1043.207031 649.644531 1042.566406 649.558594 1041.929688 649.441406 C 1041.296875 649.324219 1040.667969 649.179688 1040.046875 649 C 1039.421875 648.820312 1038.8125 648.609375 1038.210938 648.371094 C 1037.609375 648.132812 1037.023438 647.863281 1036.449219 647.566406 C 1035.875 647.269531 1035.316406 646.945312 1034.773438 646.59375 C 1034.230469 646.242188 1033.703125 645.867188 1033.199219 645.464844 C 1032.691406 645.058594 1032.207031 644.632812 1031.746094 644.183594 C 1031.28125 643.730469 1030.839844 643.257812 1030.421875 642.765625 C 1030.003906 642.269531 1029.613281 641.757812 1029.246094 641.222656 C 1028.878906 640.691406 1028.539062 640.140625 1028.226562 639.578125 C 1027.914062 639.011719 1027.628906 638.429688 1027.371094 637.835938 C 1027.117188 637.242188 1026.890625 636.636719 1026.695312 636.019531 C 1026.496094 635.40625 1026.332031 634.78125 1026.195312 634.148438 C 1026.0625 633.515625 1025.957031 632.878906 1025.882812 632.234375 C 1025.8125 631.59375 1025.769531 630.949219 1025.761719 630.300781 C 1025.75 629.65625 1025.773438 629.007812 1025.828125 628.363281 C 1025.882812 627.71875 1025.96875 627.078125 1026.085938 626.445312 C 1026.203125 625.808594 1026.351562 625.179688 1026.527344 624.558594 C 1026.707031 623.9375 1026.917969 623.324219 1027.15625 622.722656 C 1027.394531 622.125 1027.664062 621.535156 1027.957031 620.960938 C 1028.253906 620.386719 1028.578125 619.828125 1028.929688 619.285156 C 1029.28125 618.742188 1029.660156 618.21875 1030.0625 617.710938 C 1030.464844 617.207031 1030.894531 616.722656 1031.34375 616.257812 C 1031.792969 615.792969 1032.265625 615.355469 1032.761719 614.9375 C 1033.253906 614.519531 1033.769531 614.125 1034.300781 613.761719 C 1034.832031 613.394531 1035.382812 613.054688 1035.949219 612.742188 C 1036.515625 612.425781 1037.09375 612.144531 1037.6875 611.886719 C 1038.28125 611.632812 1038.886719 611.40625 1039.503906 611.207031 C 1040.117188 611.011719 1040.742188 610.847656 1041.375 610.710938 C 1042.007812 610.578125 1042.644531 610.472656 1043.289062 610.398438 C 1043.929688 610.328125 1044.574219 610.285156 1045.222656 610.277344 C 1045.867188 610.269531 1046.515625 610.292969 1047.160156 610.34375 C 1047.804688 610.398438 1048.445312 610.484375 1049.078125 610.601562 C 1049.714844 610.71875 1050.34375 610.867188 1050.964844 611.046875 C 1051.585938 611.226562 1052.199219 611.433594 1052.800781 611.675781 C 1053.402344 611.914062 1053.988281 612.179688 1054.5625 612.476562 C 1055.136719 612.773438 1055.695312 613.097656 1056.238281 613.449219 C 1056.78125 613.800781 1057.304688 614.179688 1057.8125 614.582031 C 1058.316406 614.984375 1058.804688 615.414062 1059.265625 615.863281 C 1059.730469 616.316406 1060.171875 616.789062 1060.589844 617.28125 Z M 1060.589844 617.28125 " fill-opacity="1" fill-rule="nonzero"/></g></g></g></g><g clip-path="url(#de77c47c26)"><g clip-path="url(#2a51654649)"><g clip-path="url(#cceb08072e)"><g clip-path="url(#718b500c01)"><path fill="#91dc5a" d="M 892.234375 632.710938 C 895.058594 636.054688 897.796875 639.464844 900.457031 642.941406 C 903.113281 646.417969 905.683594 649.960938 908.164062 653.5625 C 910.648438 657.167969 913.039062 660.828125 915.34375 664.550781 C 917.648438 668.273438 919.855469 672.046875 921.976562 675.878906 C 924.09375 679.707031 926.117188 683.585938 928.042969 687.515625 C 929.96875 691.445312 931.800781 695.417969 933.53125 699.4375 C 935.265625 703.457031 936.898438 707.515625 938.429688 711.613281 C 939.964844 715.710938 941.394531 719.84375 942.726562 724.015625 C 944.054688 728.183594 945.28125 732.382812 946.40625 736.613281 C 947.53125 740.839844 948.550781 745.097656 949.464844 749.375 C 950.378906 753.65625 951.191406 757.953125 951.894531 762.273438 C 952.597656 766.589844 953.195312 770.925781 953.6875 775.273438 C 954.179688 779.621094 954.5625 783.980469 954.839844 788.347656 C 955.117188 792.714844 955.289062 797.085938 955.351562 801.460938 C 955.414062 805.835938 955.371094 810.210938 955.21875 814.582031 C 955.066406 818.957031 954.804688 823.324219 954.441406 827.683594 C 954.074219 832.042969 953.601562 836.390625 953.019531 840.730469 C 952.441406 845.066406 951.753906 849.386719 950.964844 853.691406 C 950.171875 857.992188 949.273438 862.273438 948.273438 866.535156 C 947.269531 870.792969 946.164062 875.027344 944.953125 879.230469 C 943.742188 883.433594 942.429688 887.609375 941.015625 891.75 C 939.601562 895.890625 938.085938 899.992188 936.46875 904.058594 C 934.851562 908.125 933.136719 912.148438 931.324219 916.128906 C 929.511719 920.109375 927.601562 924.046875 925.59375 927.933594 C 923.585938 931.820312 921.484375 935.65625 919.289062 939.441406 C 917.09375 943.226562 914.808594 946.957031 912.429688 950.628906 C 910.050781 954.300781 907.582031 957.910156 905.027344 961.464844 C 902.472656 965.015625 899.828125 968.5 897.101562 971.921875 C 894.375 975.34375 891.566406 978.695312 888.675781 981.980469 C 885.78125 985.261719 882.8125 988.472656 879.761719 991.609375 C 876.714844 994.746094 873.589844 997.808594 870.390625 1000.792969 C 867.191406 1003.777344 863.917969 1006.679688 860.578125 1009.503906 C 857.234375 1012.328125 853.824219 1015.066406 850.347656 1017.722656 C 846.871094 1020.378906 843.332031 1022.949219 839.730469 1025.429688 C 836.125 1027.914062 832.464844 1030.304688 828.742188 1032.605469 C 825.023438 1034.910156 821.25 1037.117188 817.417969 1039.234375 C 813.589844 1041.351562 809.710938 1043.375 805.785156 1045.300781 C 801.855469 1047.226562 797.882812 1049.054688 793.863281 1050.789062 C 789.84375 1052.519531 785.789062 1054.152344 781.6875 1055.683594 C 777.589844 1057.214844 773.457031 1058.644531 769.289062 1059.976562 C 765.121094 1061.304688 760.921875 1062.53125 756.691406 1063.652344 C 752.464844 1064.777344 748.210938 1065.796875 743.929688 1066.710938 C 739.652344 1067.625 735.355469 1068.433594 731.035156 1069.136719 C 726.714844 1069.839844 722.382812 1070.433594 718.035156 1070.925781 C 713.6875 1071.414062 709.328125 1071.796875 704.964844 1072.074219 C 700.597656 1072.351562 696.226562 1072.519531 691.851562 1072.582031 C 687.476562 1072.644531 683.101562 1072.597656 678.726562 1072.445312 C 674.355469 1072.292969 669.988281 1072.03125 665.628906 1071.664062 C 661.265625 1071.296875 656.917969 1070.824219 652.582031 1070.242188 C 648.246094 1069.660156 643.925781 1068.972656 639.621094 1068.179688 C 635.316406 1067.386719 631.035156 1066.488281 626.777344 1065.484375 C 622.515625 1064.484375 618.285156 1063.375 614.082031 1062.164062 C 609.875 1060.953125 605.703125 1059.640625 601.5625 1058.222656 C 597.421875 1056.808594 593.316406 1055.292969 589.25 1053.675781 C 585.183594 1052.058594 581.160156 1050.339844 577.179688 1048.527344 C 573.199219 1046.710938 569.261719 1044.800781 565.375 1042.792969 C 561.484375 1040.785156 557.648438 1038.679688 553.863281 1036.484375 C 550.078125 1034.289062 546.351562 1032 542.679688 1029.621094 C 539.003906 1027.242188 535.394531 1024.773438 531.839844 1022.214844 C 528.289062 1019.660156 524.804688 1017.015625 521.382812 1014.289062 C 517.960938 1011.5625 514.605469 1008.75 511.320312 1005.859375 C 508.039062 1002.964844 504.828125 999.992188 501.6875 996.945312 C 498.550781 993.894531 495.488281 990.769531 492.503906 987.566406 C 489.519531 984.367188 486.617188 981.09375 483.792969 977.753906 C 480.96875 974.410156 478.226562 971 475.570312 967.519531 C 472.914062 964.042969 470.34375 960.503906 467.859375 956.898438 C 465.378906 953.296875 462.984375 949.632812 460.679688 945.910156 C 458.378906 942.191406 456.167969 938.414062 454.050781 934.585938 C 451.933594 930.757812 449.910156 926.875 447.980469 922.949219 C 446.054688 919.019531 444.226562 915.042969 442.492188 911.027344 C 440.761719 907.007812 439.128906 902.949219 437.59375 898.851562 C 436.0625 894.75 434.628906 890.617188 433.300781 886.449219 C 431.96875 882.277344 430.742188 878.078125 429.617188 873.851562 C 428.496094 869.621094 427.472656 865.367188 426.558594 861.085938 C 425.644531 856.808594 424.835938 852.507812 424.128906 848.191406 C 423.425781 843.871094 422.828125 839.539062 422.335938 835.1875 C 421.847656 830.839844 421.460938 826.484375 421.183594 822.117188 C 420.90625 817.75 420.738281 813.378906 420.675781 809.003906 C 420.609375 804.628906 420.65625 800.253906 420.808594 795.878906 C 420.960938 791.507812 421.21875 787.140625 421.585938 782.78125 C 421.953125 778.417969 422.425781 774.070312 423.003906 769.734375 C 423.585938 765.394531 424.269531 761.074219 425.0625 756.773438 C 425.855469 752.46875 426.75 748.1875 427.753906 743.929688 C 428.753906 739.667969 429.863281 735.4375 431.070312 731.230469 C 432.28125 727.027344 433.59375 722.855469 435.007812 718.714844 C 436.421875 714.574219 437.9375 710.472656 439.554688 706.40625 C 441.171875 702.339844 442.886719 698.316406 444.699219 694.332031 C 446.515625 690.351562 448.425781 686.417969 450.433594 682.527344 C 452.4375 678.640625 454.539062 674.804688 456.734375 671.019531 C 458.929688 667.234375 461.21875 663.507812 463.597656 659.835938 C 465.976562 656.164062 468.441406 652.550781 471 649 C 473.554688 645.449219 476.195312 641.960938 478.921875 638.542969 C 481.648438 635.121094 484.460938 631.765625 487.351562 628.484375 C 490.242188 625.199219 493.214844 621.988281 496.261719 618.851562 C 499.3125 615.714844 502.4375 612.652344 505.636719 609.671875 C 508.835938 606.6875 512.105469 603.78125 515.449219 600.957031 C 518.789062 598.136719 522.199219 595.394531 525.675781 592.738281 C 529.152344 590.082031 532.695312 587.515625 536.296875 585.03125 C 539.898438 582.550781 543.5625 580.15625 547.28125 577.855469 C 551.003906 575.554688 554.777344 573.34375 558.605469 571.226562 C 562.433594 569.109375 566.3125 567.089844 570.242188 565.160156 C 574.171875 563.234375 578.144531 561.40625 582.160156 559.675781 C 586.179688 557.941406 590.238281 556.3125 594.335938 554.78125 C 598.433594 553.246094 602.566406 551.816406 606.734375 550.488281 C 610.90625 549.160156 615.101562 547.933594 619.332031 546.808594 C 623.5625 545.6875 627.816406 544.667969 632.09375 543.753906 C 636.371094 542.839844 640.671875 542.03125 644.988281 541.328125 C 649.308594 540.625 653.640625 540.027344 657.988281 539.539062 C 662.339844 539.046875 666.695312 538.664062 671.0625 538.386719 C 675.429688 538.113281 679.800781 537.941406 684.175781 537.878906 C 688.550781 537.820312 692.925781 537.863281 697.296875 538.015625 C 701.671875 538.171875 706.039062 538.429688 710.398438 538.796875 C 714.757812 539.164062 719.105469 539.640625 723.445312 540.222656 C 727.78125 540.800781 732.101562 541.488281 736.402344 542.28125 C 740.707031 543.074219 744.988281 543.972656 749.25 544.976562 C 753.507812 545.980469 757.738281 547.085938 761.945312 548.296875 C 766.148438 549.507812 770.324219 550.824219 774.464844 552.238281 C 778.605469 553.652344 782.707031 555.171875 786.773438 556.789062 C 790.839844 558.40625 794.863281 560.121094 798.84375 561.9375 C 802.828125 563.75 806.761719 565.664062 810.652344 567.671875 C 814.539062 569.679688 818.375 571.78125 822.160156 573.976562 C 825.945312 576.175781 829.675781 578.460938 833.347656 580.84375 C 837.019531 583.222656 840.632812 585.691406 844.183594 588.246094 C 847.734375 590.804688 851.222656 593.445312 854.644531 596.175781 C 858.066406 598.902344 861.417969 601.710938 864.703125 604.605469 C 867.988281 607.496094 871.199219 610.46875 874.335938 613.519531 C 877.472656 616.570312 880.535156 619.695312 883.519531 622.894531 C 886.503906 626.097656 889.410156 629.367188 892.234375 632.710938 Z M 892.234375 632.710938 " fill-opacity="1" fill-rule="nonzero"/></g></g></g></g><g clip-path="url(#1f65c5acfe)"><g clip-path="url(#945398236a)"><g clip-path="url(#35663b20de)"><g clip-path="url(#bbbc07262d)"><path fill="#e4ff8a" d="M 937.933594 466.269531 C 953.296875 503.105469 964.945312 547.765625 942.394531 584.226562 C 911.546875 634.0625 841.308594 624.605469 837.351562 561.992188 C 837.15625 558.855469 837.035156 555.570312 836.96875 552.171875 C 836.371094 524.40625 838.53125 489.46875 818.867188 469.324219 C 793.421875 443.261719 761.503906 453.675781 751.121094 486.183594 C 741.964844 514.800781 756.300781 547.589844 763.398438 575.082031 C 778.105469 632.074219 797.582031 689.363281 800.347656 748.640625 C 802.875 802.867188 800.628906 858.675781 819.273438 909.664062 C 835.039062 952.789062 865.667969 992.835938 863.53125 1038.699219 C 861.65625 1079.050781 838.707031 1105.195312 808.300781 1117.898438 C 766.554688 1135.335938 710.761719 1127.417969 676.214844 1096.128906 C 644.445312 1067.378906 627.949219 1022.628906 633.4375 980.140625 C 638.878906 937.988281 663.765625 901.359375 681.910156 862.929688 C 720.105469 782.066406 728.976562 687.734375 706.535156 601.160156 C 697.238281 565.339844 682.820312 530.859375 676.109375 494.457031 C 658.238281 397.324219 733.9375 312.113281 834.230469 353.082031 C 882.851562 372.953125 917.710938 417.796875 937.933594 466.269531 Z M 937.933594 466.269531 " fill-opacity="1" fill-rule="nonzero"/></g></g></g></g><g clip-path="url(#c84aea9956)"><g clip-path="url(#4cd11a5a0a)"><g clip-path="url(#08a3db5c79)"><g clip-path="url(#b008edf667)"><path fill="#68c423" d="M 562.785156 741.070312 C 565.269531 719.410156 567.097656 696.855469 555.210938 679.160156 C 541.648438 658.964844 510.84375 653.046875 490.769531 666.78125 C 470.695312 680.511719 465.042969 711.335938 478.972656 731.3125 C 486.9375 742.738281 500.515625 749.398438 514.242188 750.34375 C 531.4375 751.519531 540.941406 744.394531 553.90625 734.351562 C 556.191406 732.585938 554.207031 732.453125 556.410156 730.59375 " fill-opacity="1" fill-rule="nonzero"/></g></g></g></g><g clip-path="url(#355e3fbd6b)"><g clip-path="url(#a4f3b93a40)"><g clip-path="url(#15098a8fab)"><g clip-path="url(#74f67c86bb)"><path fill="#68c423" d="M 996.246094 798.011719 C 999.410156 782.871094 1004.648438 768.671875 1015.992188 758.59375 C 1034.175781 742.445312 1065.480469 744.449219 1081.464844 762.773438 C 1097.453125 781.101562 1095.214844 812.40625 1076.742188 828.214844 C 1066.140625 837.300781 1051.351562 840.308594 1037.832031 837.78125 C 1020.886719 834.613281 1013.46875 825.324219 1003.4375 812.34375 C 1001.671875 810.0625 1003.621094 810.4375 1001.972656 808.066406 " fill-opacity="1" fill-rule="nonzero"/></g></g></g></g><g clip-path="url(#49a7c018d7)"><g clip-path="url(#319dba78e0)"><g clip-path="url(#242aed89b9)"><g clip-path="url(#97c4f78cae)"><path fill="#68c423" d="M 883.636719 713.101562 C 883.003906 701.085938 884.253906 689.40625 890.601562 679.34375 C 901.558594 661.9375 927.460938 656.171875 944.769531 667.296875 C 962.082031 678.417969 967.628906 704.359375 956.363281 721.566406 C 949.917969 731.421875 938.566406 737.410156 927.011719 738.519531 C 912.507812 739.945312 904.292969 734.152344 893.078125 725.980469 C 891.105469 724.539062 892.792969 724.371094 890.867188 722.855469 " fill-opacity="1" fill-rule="nonzero"/></g></g></g></g><g clip-path="url(#b8fe471ac5)"><g clip-path="url(#d0fab8f341)"><g clip-path="url(#5a45429775)"><g clip-path="url(#2a5df81ab9)"><path fill="#d0eb78" d="M 818.167969 507.273438 C 817.480469 510.1875 816.816406 513.15625 816.179688 516.148438 C 816.378906 513.085938 817.039062 510.128906 818.167969 507.273438 Z M 818.167969 507.273438 " fill-opacity="1" fill-rule="nonzero"/></g></g></g></g><g clip-path="url(#2dbe46d453)"><g clip-path="url(#e9a3727013)"><g clip-path="url(#03bb548371)"><g clip-path="url(#4b96873ae5)"><path fill="#c7e36d" d="M 937.933594 466.269531 C 953.296875 503.105469 964.945312 547.765625 942.394531 584.226562 C 911.546875 634.0625 841.308594 624.605469 837.351562 561.992188 C 837.15625 558.855469 837.035156 555.570312 836.96875 552.171875 C 839.789062 553.90625 842.78125 555.261719 845.945312 556.230469 C 849.113281 557.199219 852.347656 557.753906 855.65625 557.898438 C 880.203125 558.667969 902.117188 538.8125 909.671875 515.417969 C 917.226562 492.019531 912.941406 466.316406 904.351562 443.253906 C 884.066406 388.542969 829.230469 340.078125 772.101562 352.085938 C 732.941406 360.316406 703.324219 395.507812 692.816406 434.121094 C 682.648438 471.488281 704.09375 521.707031 715.722656 557.199219 C 728.730469 596.980469 743.261719 636.542969 749.179688 678.128906 C 752.769531 703.261719 754.554688 729.929688 756.976562 755.425781 C 758.429688 770.65625 759.117188 785.917969 759.042969 801.21875 C 758.964844 816.519531 758.125 831.777344 756.523438 846.992188 C 754.921875 862.207031 752.566406 877.300781 749.453125 892.28125 C 746.34375 907.261719 742.492188 922.046875 737.898438 936.640625 C 725.777344 974.839844 708.414062 1014.75 718.597656 1053.53125 C 727.84375 1088.660156 761.316406 1116.003906 797.617188 1117.976562 C 801.183594 1118.175781 804.75 1118.152344 808.3125 1117.910156 C 766.566406 1135.347656 710.773438 1127.429688 676.226562 1096.144531 C 644.445312 1067.378906 627.949219 1022.628906 633.4375 980.140625 C 638.878906 937.988281 663.765625 901.359375 681.910156 862.929688 C 720.105469 782.066406 728.976562 687.734375 706.535156 601.160156 C 697.238281 565.339844 682.820312 530.859375 676.109375 494.457031 C 658.238281 397.324219 733.9375 312.113281 834.230469 353.082031 C 882.851562 372.953125 917.710938 417.796875 937.933594 466.269531 Z M 937.933594 466.269531 " fill-opacity="1" fill-rule="nonzero"/></g></g></g></g><g clip-path="url(#807ed516ba)"><g clip-path="url(#39437b205b)"><g clip-path="url(#a4a72f5476)"><g clip-path="url(#5e722577b9)"><path fill="#243744" d="M 900.996094 388.960938 C 872.914062 358.441406 834.480469 335.855469 792.457031 333.019531 C 760.898438 330.878906 729.363281 341.292969 706.125 362.933594 C 682.640625 384.773438 668.78125 415.148438 664.804688 446.792969 C 659.503906 489.019531 674.230469 529.757812 686.898438 569.351562 C 699.738281 609.484375 708.414062 650.300781 708.84375 692.578125 C 709.082031 712.839844 707.726562 732.996094 704.773438 753.046875 C 701.820312 773.09375 697.308594 792.785156 691.238281 812.121094 C 684.953125 831.835938 677.160156 850.933594 667.855469 869.417969 C 658.097656 888.929688 647.246094 907.917969 638.550781 927.953125 C 632.105469 942.796875 626.867188 958.4375 624.292969 974.484375 C 583.71875 912.132812 564.363281 836.203125 570.480469 762.066406 C 572.144531 741.863281 576.371094 721.605469 573.539062 701.261719 C 570.703125 680.707031 559.265625 663.417969 540.25 654.652344 C 522.074219 646.28125 499.679688 648.167969 483.488281 659.941406 C 467.441406 671.617188 460.191406 692.34375 461.777344 711.621094 C 463.820312 736.363281 483.261719 754.769531 507.035156 759.324219 C 509.824219 759.882812 512.640625 760.214844 515.484375 760.324219 C 518.328125 760.433594 521.164062 760.316406 523.988281 759.972656 C 526.8125 759.632812 529.59375 759.070312 532.328125 758.285156 C 535.0625 757.503906 537.71875 756.507812 540.296875 755.304688 C 544.503906 753.191406 548.5 750.734375 552.289062 747.9375 C 551.332031 756.5 550.378906 765.058594 550.011719 773.671875 C 549.195312 792.832031 549.914062 811.933594 552.167969 830.976562 C 554.421875 850.019531 558.179688 868.761719 563.441406 887.203125 C 569.410156 908.21875 577.214844 928.53125 586.855469 948.136719 C 596.5 967.742188 607.820312 986.324219 620.820312 1003.882812 C 621.398438 1004.65625 622.09375 1005.300781 622.902344 1005.824219 C 624.023438 1022.074219 627.71875 1037.710938 633.992188 1052.742188 C 637.910156 1062.1875 642.796875 1071.101562 648.652344 1079.488281 C 654.503906 1087.871094 661.191406 1095.53125 668.707031 1102.464844 C 669.03125 1102.757812 669.367188 1103.03125 669.714844 1103.300781 C 670.058594 1103.566406 670.328125 1103.941406 670.667969 1104.238281 C 719.742188 1148.253906 810.679688 1150.25 853.347656 1096.09375 C 862.449219 1084.546875 868.320312 1070.746094 871.265625 1056.394531 C 871.457031 1056.234375 871.667969 1056.121094 871.863281 1055.957031 C 879.316406 1049.914062 886.519531 1043.582031 893.464844 1036.964844 C 900.414062 1030.347656 907.089844 1023.460938 913.488281 1016.3125 C 919.886719 1009.160156 925.992188 1001.769531 931.800781 994.128906 C 937.609375 986.492188 943.105469 978.636719 948.285156 970.5625 C 953.46875 962.484375 958.320312 954.214844 962.84375 945.75 C 967.363281 937.289062 971.542969 928.65625 975.375 919.859375 C 979.210938 911.0625 982.6875 902.128906 985.808594 893.054688 C 988.929688 883.980469 991.683594 874.796875 994.070312 865.5 C 997.398438 852.386719 999.589844 839.160156 1001.644531 825.875 C 1003.875 828.597656 1006.273438 831.167969 1008.835938 833.585938 C 1012.738281 837.253906 1017.089844 840.285156 1021.882812 842.671875 C 1026.679688 845.058594 1031.71875 846.703125 1037 847.605469 C 1057.542969 851.316406 1079.679688 843.402344 1091.792969 826.136719 C 1103.003906 810.136719 1104.992188 788.304688 1097.589844 770.332031 C 1089.980469 751.777344 1071.730469 739.972656 1052.082031 738.097656 C 1049.640625 737.84375 1047.195312 737.746094 1044.746094 737.8125 C 1042.292969 737.875 1039.855469 738.097656 1037.433594 738.480469 C 1035.011719 738.863281 1032.625 739.402344 1030.273438 740.097656 C 1027.921875 740.789062 1025.621094 741.632812 1023.382812 742.628906 C 1021.140625 743.621094 1018.972656 744.757812 1016.878906 746.035156 C 1014.785156 747.3125 1012.78125 748.71875 1010.871094 750.257812 C 1008.960938 751.796875 1007.160156 753.449219 1005.46875 755.222656 C 1003.773438 756.996094 1002.203125 758.875 1000.753906 760.851562 C 988.765625 777.207031 985.761719 798.253906 983.019531 817.773438 C 977.402344 858.394531 965.9375 897.71875 946.71875 934.097656 C 937.339844 951.914062 926.480469 968.777344 914.140625 984.6875 C 901.800781 1000.597656 888.167969 1015.3125 873.246094 1028.828125 C 872.484375 1014.640625 869.132812 1000.683594 864.335938 987.175781 C 859.875 974.617188 854.214844 962.558594 848.410156 950.570312 C 882.644531 899.246094 900.878906 837.199219 899.558594 775.511719 C 899.230469 763.800781 898.300781 752.140625 896.773438 740.527344 C 898.105469 741.347656 899.453125 742.144531 900.84375 742.875 C 904.8125 745 908.996094 746.535156 913.402344 747.472656 C 917.804688 748.414062 922.253906 748.71875 926.742188 748.394531 C 945.996094 747.1875 964.402344 734.339844 969.90625 715.492188 C 974.710938 699.109375 971.019531 680.308594 959.664062 667.375 C 948.304688 654.4375 930.273438 649.195312 913.585938 652.894531 C 896.40625 656.738281 882.371094 668.636719 876.859375 685.53125 C 871.457031 702.117188 874.003906 719.894531 876.472656 736.769531 C 879.039062 753.75 880.121094 770.824219 879.714844 787.992188 C 879.308594 805.160156 877.417969 822.164062 874.050781 839 C 870.765625 855.011719 866.132812 870.621094 860.148438 885.828125 C 854.164062 901.035156 846.917969 915.617188 838.410156 929.570312 C 829.769531 910.886719 823.003906 891.898438 819.050781 871.625 C 810.367188 827.101562 812.945312 781.789062 809.449219 736.808594 C 805.84375 690.539062 792.824219 645.742188 780.585938 601.179688 C 775.171875 581.472656 769.558594 561.824219 764.117188 542.128906 C 759.34375 524.898438 755.15625 506.066406 760.449219 489.421875 C 761.132812 487.265625 761.933594 485.152344 762.855469 483.085938 C 763.371094 481.902344 763.972656 480.761719 764.660156 479.671875 C 767.25 475.332031 768.703125 473.578125 771.628906 471.007812 C 772.34375 470.402344 773.054688 469.804688 773.789062 469.238281 C 773.914062 469.132812 775.039062 468.375 775.246094 468.199219 C 776.308594 467.574219 777.402344 467.007812 778.53125 466.5 C 779.316406 466.160156 780.167969 465.828125 780.992188 465.496094 L 781.414062 465.320312 L 781.925781 465.234375 C 782.789062 465.074219 783.648438 464.855469 784.511719 464.707031 C 784.824219 464.660156 787.496094 464.421875 786.9375 464.398438 C 794.371094 464.214844 799.261719 466.261719 805.351562 470.542969 C 808.777344 472.9375 811.785156 475.769531 814.371094 479.050781 C 816.960938 482.328125 819.015625 485.914062 820.546875 489.800781 C 827.5 506.511719 826.886719 526.902344 827.097656 545.210938 C 827.207031 555.140625 827.136719 565.296875 829.25 575.042969 C 830.261719 579.898438 831.769531 584.597656 833.765625 589.140625 C 835.765625 593.683594 838.210938 597.96875 841.109375 601.996094 C 851.195312 615.898438 867.6875 624.550781 884.71875 625.746094 C 902.726562 626.996094 920.6875 620.394531 934.332031 608.726562 C 965.4375 582.140625 969.503906 539.011719 960.234375 501.492188 C 950.058594 460.5 929.691406 420.140625 900.996094 388.960938 Z M 512.5 740.277344 C 504.449219 739.3125 496.214844 735.625 490.621094 729.957031 C 485.292969 724.566406 482.441406 718.175781 481.425781 710.507812 C 480.992188 706.839844 481.058594 703.179688 481.625 699.527344 C 482.191406 695.878906 483.238281 692.371094 484.765625 689.007812 C 486.253906 685.769531 488.152344 682.792969 490.457031 680.078125 C 492.679688 677.738281 495.140625 675.683594 497.835938 673.910156 C 510.785156 666.53125 527.335938 668.035156 539.28125 676.667969 C 542.015625 678.59375 544.359375 680.917969 546.3125 683.632812 C 548.636719 686.859375 550.4375 690.359375 551.710938 694.128906 C 554.277344 701.304688 554.925781 710.230469 554.722656 718.210938 C 554.703125 719.078125 554.667969 719.945312 554.632812 720.816406 C 552.851562 721.03125 551.324219 721.765625 550.046875 723.023438 C 548.953125 724.035156 547.988281 725.160156 547.152344 726.394531 C 547.007812 726.65625 546.878906 726.925781 546.761719 727.207031 C 546.375 727.613281 545.960938 727.992188 545.519531 728.34375 C 544.546875 729.085938 543.5625 729.84375 542.578125 730.578125 C 539.722656 732.871094 536.675781 734.878906 533.445312 736.605469 C 527.011719 740.007812 520.449219 741.226562 512.5 740.277344 Z M 1012.492188 810.601562 C 1012.507812 810.285156 1012.523438 809.972656 1012.511719 809.65625 L 1012.550781 809.703125 Z M 1023.226562 765.375 C 1028.449219 760.964844 1034.722656 758.621094 1042.03125 757.726562 C 1045.511719 757.347656 1048.980469 757.421875 1052.441406 757.945312 C 1055.902344 758.472656 1059.238281 759.433594 1062.445312 760.828125 C 1075.261719 766.25 1082.851562 779.535156 1082.296875 793.871094 C 1081.664062 810.9375 1071.367188 825.300781 1053.625 828.25 C 1045.484375 829.597656 1035.855469 828.34375 1029.179688 824.527344 C 1022.691406 820.816406 1017.058594 814.746094 1012.398438 808.097656 L 1012.367188 808.058594 C 1012.125 806.597656 1011.621094 805.230469 1010.859375 803.957031 C 1009.695312 801.90625 1008.066406 800.339844 1005.964844 799.261719 C 1008.75 786.390625 1013.359375 773.625 1023.226562 765.375 Z M 897.347656 687.304688 C 898.566406 684.914062 900.09375 682.746094 901.933594 680.796875 C 903.773438 678.84375 905.847656 677.191406 908.160156 675.835938 C 913.523438 672.90625 919.378906 671.21875 924.796875 671.460938 C 931.148438 671.738281 936.0625 673.074219 940.992188 676.695312 C 945.316406 679.878906 948.398438 684.417969 950.632812 690.5 C 952.457031 695.472656 952.898438 703.277344 951.503906 708.378906 C 951.054688 710.160156 950.425781 711.871094 949.613281 713.515625 C 948.800781 715.160156 947.824219 716.699219 946.683594 718.136719 C 945.542969 719.570312 944.265625 720.871094 942.847656 722.03125 C 941.425781 723.195312 939.902344 724.195312 938.269531 725.03125 C 931.644531 728.476562 922.589844 729.925781 916.503906 728.167969 C 910.910156 726.5625 905.574219 723.425781 900.511719 719.417969 C 899.953125 718.335938 899.234375 717.371094 898.359375 716.527344 C 896.953125 715.167969 895.320312 714.183594 893.460938 713.578125 C 892.855469 704.476562 893.421875 695.425781 897.347656 687.304688 Z M 926.199219 463.976562 C 939.921875 494.679688 951.980469 531.617188 941.039062 564.101562 C 935.640625 580.101562 924.667969 594.191406 910.34375 601.191406 C 897.585938 607.433594 884.015625 608.207031 871 602.167969 C 870.761719 602.023438 869.425781 601.347656 869.347656 601.304688 C 868.519531 600.820312 867.707031 600.316406 866.910156 599.792969 C 865.417969 598.816406 864.023438 597.738281 862.636719 596.628906 C 862.433594 596.46875 861.789062 595.871094 861.601562 595.699219 C 861.039062 595.152344 860.492188 594.59375 859.957031 594.019531 C 858.355469 592.277344 856.875 590.433594 855.515625 588.492188 C 855.351562 588.300781 855.222656 588.148438 855.15625 587.980469 L 854.960938 587.648438 C 854.507812 586.894531 854.070312 586.121094 853.644531 585.339844 C 852.613281 583.398438 851.695312 581.402344 850.890625 579.355469 C 849.34375 575.296875 848.292969 571.113281 847.730469 566.808594 C 845.113281 548.84375 847.300781 528.765625 845.21875 509.78125 C 842.984375 489.417969 836.035156 470.554688 820.058594 457.089844 C 806.660156 445.824219 788.425781 441.472656 771.878906 447.933594 C 755.546875 454.324219 744.585938 470.773438 740.628906 487.304688 C 736.054688 506.328125 739.3125 525.796875 744.371094 544.363281 C 755.425781 584.988281 767.691406 625.28125 777.527344 666.195312 C 782.773438 688.226562 787.140625 710.5 789.398438 733.070312 C 791.550781 754.824219 791.472656 776.773438 792.292969 798.601562 C 793.949219 842.929688 798.191406 886.847656 816.0625 928.007812 C 819.320312 935.53125 823.011719 943.082031 826.785156 950.691406 C 826.875 951.945312 827.199219 953.132812 827.757812 954.257812 C 828.3125 955.382812 829.0625 956.359375 830.003906 957.191406 C 842.53125 982.515625 854.761719 1008.566406 853.816406 1036.679688 C 853.261719 1053.117188 848.875 1068.375 840 1081.132812 C 839.070312 1082.464844 838.121094 1083.796875 837.09375 1085.039062 C 836.5 1085.796875 835.886719 1086.550781 835.261719 1087.285156 C 835.179688 1087.355469 834.148438 1088.515625 834.007812 1088.699219 C 831.519531 1091.328125 828.882812 1093.792969 826.085938 1096.089844 C 824.621094 1097.328125 823.078125 1098.480469 821.527344 1099.597656 C 820.746094 1100.160156 819.941406 1100.6875 819.15625 1101.246094 L 818.785156 1101.558594 L 818.578125 1101.679688 C 815.152344 1103.816406 811.605469 1105.734375 807.945312 1107.4375 C 801.570312 1110.484375 794.925781 1112.746094 788.015625 1114.226562 C 780.609375 1115.859375 773.113281 1116.855469 765.535156 1117.214844 C 757.820312 1117.480469 750.144531 1117.042969 742.507812 1115.902344 C 734.871094 1114.761719 727.402344 1112.9375 720.097656 1110.429688 C 713.242188 1108.167969 706.683594 1105.234375 700.421875 1101.628906 C 694.164062 1098.027344 688.332031 1093.832031 682.929688 1089.039062 C 654.933594 1062.917969 639.394531 1024.648438 642.789062 986.121094 C 646.507812 943.898438 671.53125 907.1875 689.53125 869.988281 C 724.792969 797.1875 736.484375 713.105469 723.429688 633.300781 C 719.890625 611.675781 714.140625 590.605469 707.605469 569.746094 C 700.828125 548.132812 693.375 526.707031 688.335938 504.605469 C 680.960938 472.292969 681.421875 441.058594 695.308594 410.902344 C 695.683594 410.074219 696.109375 409.207031 696.519531 408.355469 L 696.796875 407.777344 L 697.054688 407.292969 C 697.847656 405.78125 698.675781 404.285156 699.535156 402.808594 C 701.457031 399.484375 703.515625 396.21875 705.769531 393.121094 C 707.714844 390.402344 709.785156 387.761719 711.984375 385.203125 C 712.09375 385.109375 712.871094 384.195312 713.105469 383.910156 C 713.554688 383.425781 714.003906 382.9375 714.457031 382.46875 C 715.707031 381.167969 716.988281 379.898438 718.296875 378.65625 C 720.691406 376.394531 723.171875 374.246094 725.761719 372.21875 C 727.171875 371.113281 728.613281 370.042969 730.078125 369.003906 C 730.816406 368.488281 731.5625 367.996094 732.296875 367.484375 L 732.941406 367.058594 L 733.851562 366.496094 C 739.796875 362.890625 746.046875 359.925781 752.597656 357.59375 C 753.253906 357.363281 753.910156 357.140625 754.570312 356.925781 L 756.277344 356.398438 C 757.761719 355.976562 759.253906 355.585938 760.753906 355.222656 C 764.574219 354.316406 768.433594 353.632812 772.332031 353.160156 C 779.5 352.238281 786.679688 352.148438 793.871094 352.894531 C 802.609375 353.765625 811.171875 355.503906 819.558594 358.113281 C 827.945312 360.71875 835.988281 364.136719 843.679688 368.371094 C 881.667969 389.09375 908.808594 425.046875 926.214844 463.996094 Z M 926.199219 463.976562 " fill-opacity="1" fill-rule="nonzero"/></g></g></g></g><g clip-path="url(#575d984447)"><g clip-path="url(#c081483bc3)"><g clip-path="url(#ced9363665)"><g clip-path="url(#ce88d5586d)"><path fill="#68c423" d="M 582.800781 494.613281 C 583.214844 495.109375 583.609375 495.621094 583.976562 496.15625 C 584.34375 496.6875 584.683594 497.238281 584.996094 497.804688 C 585.308594 498.367188 585.59375 498.949219 585.847656 499.542969 C 586.105469 500.136719 586.332031 500.742188 586.527344 501.359375 C 586.726562 501.972656 586.890625 502.597656 587.027344 503.230469 C 587.160156 503.863281 587.265625 504.5 587.339844 505.144531 C 587.410156 505.785156 587.453125 506.429688 587.460938 507.078125 C 587.46875 507.726562 587.449219 508.371094 587.394531 509.015625 C 587.339844 509.660156 587.253906 510.300781 587.136719 510.933594 C 587.019531 511.570312 586.871094 512.199219 586.691406 512.820312 C 586.515625 513.441406 586.304688 514.054688 586.066406 514.65625 C 585.828125 515.257812 585.558594 515.84375 585.261719 516.417969 C 584.964844 516.992188 584.640625 517.550781 584.289062 518.09375 C 583.9375 518.636719 583.5625 519.160156 583.160156 519.667969 C 582.753906 520.171875 582.328125 520.65625 581.878906 521.121094 C 581.425781 521.585938 580.957031 522.027344 580.460938 522.441406 C 579.96875 522.859375 579.453125 523.253906 578.921875 523.621094 C 578.390625 523.984375 577.839844 524.324219 577.273438 524.640625 C 576.707031 524.953125 576.128906 525.234375 575.535156 525.492188 C 574.941406 525.75 574.335938 525.972656 573.71875 526.171875 C 573.101562 526.367188 572.480469 526.53125 571.847656 526.667969 C 571.214844 526.804688 570.578125 526.90625 569.933594 526.980469 C 569.289062 527.050781 568.644531 527.09375 568 527.101562 C 567.351562 527.109375 566.707031 527.089844 566.0625 527.035156 C 565.417969 526.980469 564.777344 526.894531 564.140625 526.777344 C 563.507812 526.660156 562.878906 526.511719 562.257812 526.332031 C 561.632812 526.152344 561.023438 525.945312 560.421875 525.707031 C 559.820312 525.464844 559.234375 525.199219 558.660156 524.902344 C 558.085938 524.605469 557.523438 524.28125 556.984375 523.929688 C 556.441406 523.578125 555.914062 523.199219 555.410156 522.796875 C 554.902344 522.394531 554.417969 521.964844 553.957031 521.515625 C 553.492188 521.066406 553.050781 520.59375 552.632812 520.097656 C 552.214844 519.605469 551.824219 519.089844 551.457031 518.558594 C 551.089844 518.023438 550.75 517.476562 550.4375 516.910156 C 550.125 516.34375 549.839844 515.765625 549.582031 515.171875 C 549.328125 514.574219 549.101562 513.972656 548.90625 513.355469 C 548.707031 512.738281 548.542969 512.113281 548.40625 511.480469 C 548.269531 510.847656 548.167969 510.210938 548.09375 509.570312 C 548.023438 508.925781 547.980469 508.28125 547.972656 507.636719 C 547.960938 506.988281 547.984375 506.34375 548.039062 505.699219 C 548.09375 505.054688 548.179688 504.414062 548.296875 503.777344 C 548.414062 503.140625 548.5625 502.511719 548.738281 501.890625 C 548.917969 501.269531 549.128906 500.660156 549.367188 500.058594 C 549.605469 499.457031 549.871094 498.867188 550.167969 498.292969 C 550.464844 497.71875 550.789062 497.160156 551.140625 496.617188 C 551.492188 496.074219 551.871094 495.550781 552.273438 495.046875 C 552.675781 494.539062 553.105469 494.054688 553.554688 493.589844 C 554.003906 493.128906 554.476562 492.6875 554.972656 492.269531 C 555.464844 491.851562 555.980469 491.460938 556.511719 491.09375 C 557.042969 490.726562 557.59375 490.386719 558.160156 490.074219 C 558.726562 489.761719 559.304688 489.476562 559.898438 489.222656 C 560.492188 488.964844 561.097656 488.738281 561.714844 488.542969 C 562.328125 488.347656 562.953125 488.179688 563.585938 488.042969 C 564.21875 487.910156 564.855469 487.804688 565.5 487.734375 C 566.140625 487.660156 566.785156 487.621094 567.433594 487.609375 C 568.078125 487.601562 568.726562 487.625 569.371094 487.679688 C 570.015625 487.734375 570.652344 487.820312 571.289062 487.9375 C 571.925781 488.054688 572.554688 488.203125 573.175781 488.378906 C 573.796875 488.558594 574.410156 488.769531 575.011719 489.007812 C 575.613281 489.246094 576.199219 489.515625 576.773438 489.8125 C 577.347656 490.109375 577.90625 490.433594 578.449219 490.785156 C 578.992188 491.136719 579.515625 491.511719 580.023438 491.917969 C 580.527344 492.320312 581.011719 492.746094 581.476562 493.199219 C 581.941406 493.648438 582.382812 494.121094 582.800781 494.613281 Z M 582.800781 494.613281 " fill-opacity="1" fill-rule="nonzero"/></g></g></g></g><g clip-path="url(#7e5e3cb668)"><g clip-path="url(#a33b970097)"><g clip-path="url(#a44f818c8a)"><g clip-path="url(#121e3b3f33)"><path fill="#68c423" d="M 451.851562 605.234375 C 452.339844 605.8125 452.796875 606.410156 453.226562 607.03125 C 453.65625 607.65625 454.050781 608.296875 454.417969 608.957031 C 454.785156 609.617188 455.117188 610.296875 455.414062 610.988281 C 455.714844 611.683594 455.976562 612.390625 456.207031 613.109375 C 456.4375 613.828125 456.628906 614.558594 456.789062 615.296875 C 456.945312 616.035156 457.066406 616.777344 457.152344 617.527344 C 457.238281 618.28125 457.285156 619.03125 457.296875 619.789062 C 457.308594 620.542969 457.28125 621.296875 457.21875 622.046875 C 457.152344 622.800781 457.054688 623.546875 456.917969 624.292969 C 456.78125 625.035156 456.609375 625.769531 456.398438 626.492188 C 456.191406 627.21875 455.945312 627.933594 455.667969 628.636719 C 455.390625 629.335938 455.074219 630.023438 454.730469 630.695312 C 454.382812 631.363281 454.003906 632.015625 453.59375 632.652344 C 453.183594 633.285156 452.742188 633.898438 452.273438 634.488281 C 451.800781 635.078125 451.304688 635.644531 450.777344 636.183594 C 450.25 636.726562 449.699219 637.242188 449.121094 637.726562 C 448.546875 638.214844 447.945312 638.671875 447.324219 639.101562 C 446.703125 639.53125 446.0625 639.925781 445.402344 640.292969 C 444.742188 640.65625 444.0625 640.988281 443.371094 641.289062 C 442.675781 641.585938 441.96875 641.851562 441.25 642.082031 C 440.53125 642.308594 439.800781 642.503906 439.0625 642.660156 C 438.324219 642.820312 437.582031 642.941406 436.832031 643.023438 C 436.082031 643.109375 435.328125 643.15625 434.574219 643.167969 C 433.816406 643.179688 433.0625 643.152344 432.3125 643.089844 C 431.558594 643.023438 430.8125 642.925781 430.070312 642.789062 C 429.324219 642.652344 428.589844 642.476562 427.867188 642.269531 C 427.140625 642.058594 426.425781 641.816406 425.726562 641.539062 C 425.023438 641.257812 424.335938 640.945312 423.664062 640.597656 C 422.996094 640.253906 422.34375 639.875 421.707031 639.464844 C 421.074219 639.050781 420.460938 638.613281 419.871094 638.140625 C 419.28125 637.671875 418.714844 637.171875 418.171875 636.644531 C 417.632812 636.117188 417.117188 635.566406 416.628906 634.988281 C 416.144531 634.414062 415.683594 633.8125 415.257812 633.191406 C 414.828125 632.570312 414.429688 631.929688 414.066406 631.265625 C 413.699219 630.605469 413.367188 629.929688 413.070312 629.234375 C 412.769531 628.542969 412.503906 627.835938 412.277344 627.117188 C 412.046875 626.398438 411.851562 625.667969 411.695312 624.929688 C 411.535156 624.191406 411.414062 623.445312 411.332031 622.695312 C 411.246094 621.945312 411.199219 621.191406 411.1875 620.4375 C 411.175781 619.683594 411.203125 618.929688 411.265625 618.175781 C 411.328125 617.421875 411.429688 616.675781 411.566406 615.933594 C 411.703125 615.191406 411.875 614.457031 412.082031 613.730469 C 412.292969 613.003906 412.535156 612.292969 412.816406 611.589844 C 413.09375 610.886719 413.40625 610.203125 413.753906 609.53125 C 414.101562 608.859375 414.476562 608.207031 414.890625 607.574219 C 415.300781 606.941406 415.738281 606.328125 416.210938 605.738281 C 416.679688 605.148438 417.179688 604.582031 417.707031 604.039062 C 418.230469 603.5 418.785156 602.984375 419.359375 602.496094 C 419.9375 602.007812 420.535156 601.550781 421.15625 601.125 C 421.78125 600.695312 422.421875 600.296875 423.082031 599.933594 C 423.742188 599.566406 424.421875 599.234375 425.113281 598.9375 C 425.808594 598.636719 426.511719 598.375 427.234375 598.144531 C 427.953125 597.914062 428.679688 597.722656 429.417969 597.5625 C 430.15625 597.40625 430.902344 597.285156 431.652344 597.199219 C 432.402344 597.117188 433.15625 597.066406 433.910156 597.058594 C 434.664062 597.046875 435.417969 597.074219 436.171875 597.136719 C 436.925781 597.199219 437.671875 597.300781 438.414062 597.4375 C 439.15625 597.574219 439.890625 597.746094 440.617188 597.957031 C 441.34375 598.164062 442.058594 598.410156 442.757812 598.6875 C 443.460938 598.964844 444.148438 599.28125 444.816406 599.625 C 445.488281 599.972656 446.140625 600.351562 446.773438 600.761719 C 447.410156 601.171875 448.019531 601.613281 448.613281 602.085938 C 449.203125 602.554688 449.769531 603.054688 450.308594 603.578125 C 450.851562 604.105469 451.367188 604.65625 451.851562 605.234375 Z M 451.851562 605.234375 " fill-opacity="1" fill-rule="nonzero"/></g></g></g></g><g clip-path="url(#41b77bb9fb)"><g clip-path="url(#d262876c0d)"><g clip-path="url(#d54699f021)"><g clip-path="url(#d28aa32308)"><path fill="#68c423" d="M 434.242188 620.113281 C 435.039062 621.058594 435.789062 622.039062 436.492188 623.058594 C 437.195312 624.078125 437.84375 625.128906 438.441406 626.210938 C 439.042969 627.292969 439.585938 628.402344 440.074219 629.539062 C 440.566406 630.675781 441 631.832031 441.375 633.011719 C 441.75 634.1875 442.066406 635.382812 442.328125 636.59375 C 442.585938 637.800781 442.785156 639.023438 442.921875 640.25 C 443.0625 641.480469 443.140625 642.714844 443.15625 643.949219 C 443.175781 645.1875 443.132812 646.421875 443.027344 647.652344 C 442.925781 648.886719 442.761719 650.113281 442.539062 651.328125 C 442.3125 652.542969 442.03125 653.746094 441.6875 654.9375 C 441.347656 656.125 440.949219 657.292969 440.492188 658.441406 C 440.035156 659.59375 439.519531 660.714844 438.953125 661.816406 C 438.386719 662.914062 437.765625 663.984375 437.09375 665.019531 C 436.421875 666.058594 435.699219 667.0625 434.929688 668.027344 C 434.160156 668.996094 433.34375 669.921875 432.480469 670.808594 C 431.617188 671.699219 430.714844 672.539062 429.769531 673.339844 C 428.824219 674.136719 427.84375 674.886719 426.824219 675.585938 C 425.804688 676.289062 424.753906 676.941406 423.671875 677.539062 C 422.589844 678.136719 421.480469 678.679688 420.347656 679.167969 C 419.210938 679.660156 418.054688 680.09375 416.875 680.46875 C 415.695312 680.84375 414.503906 681.160156 413.292969 681.417969 C 412.082031 681.675781 410.863281 681.875 409.632812 682.015625 C 408.40625 682.152344 407.171875 682.230469 405.933594 682.25 C 404.699219 682.265625 403.464844 682.222656 402.230469 682.117188 C 401 682.015625 399.773438 681.851562 398.558594 681.625 C 397.339844 681.402344 396.136719 681.121094 394.949219 680.777344 C 393.761719 680.433594 392.59375 680.035156 391.441406 679.578125 C 390.292969 679.121094 389.167969 678.609375 388.070312 678.039062 C 386.96875 677.472656 385.902344 676.851562 384.863281 676.179688 C 383.824219 675.507812 382.824219 674.785156 381.855469 674.015625 C 380.886719 673.242188 379.960938 672.425781 379.074219 671.5625 C 378.1875 670.703125 377.34375 669.796875 376.546875 668.851562 C 375.746094 667.90625 374.996094 666.925781 374.292969 665.90625 C 373.59375 664.886719 372.941406 663.835938 372.34375 662.753906 C 371.746094 661.671875 371.199219 660.5625 370.710938 659.425781 C 370.222656 658.292969 369.789062 657.132812 369.414062 655.957031 C 369.035156 654.777344 368.71875 653.582031 368.460938 652.371094 C 368.203125 651.164062 368.003906 649.945312 367.863281 648.714844 C 367.726562 647.484375 367.648438 646.253906 367.628906 645.015625 C 367.613281 643.777344 367.65625 642.542969 367.757812 641.3125 C 367.863281 640.078125 368.023438 638.855469 368.25 637.636719 C 368.472656 636.421875 368.757812 635.21875 369.097656 634.03125 C 369.441406 632.839844 369.839844 631.671875 370.296875 630.523438 C 370.753906 629.371094 371.265625 628.25 371.832031 627.148438 C 372.398438 626.050781 373.019531 624.980469 373.691406 623.945312 C 374.363281 622.90625 375.085938 621.902344 375.859375 620.9375 C 376.628906 619.96875 377.445312 619.042969 378.308594 618.15625 C 379.167969 617.269531 380.074219 616.425781 381.015625 615.628906 C 381.960938 614.828125 382.945312 614.078125 383.960938 613.378906 C 384.980469 612.675781 386.03125 612.027344 387.113281 611.425781 C 388.195312 610.828125 389.304688 610.285156 390.441406 609.796875 C 391.578125 609.304688 392.734375 608.875 393.914062 608.496094 C 395.089844 608.121094 396.285156 607.804688 397.496094 607.546875 C 398.703125 607.289062 399.921875 607.089844 401.152344 606.949219 C 402.382812 606.8125 403.613281 606.734375 404.851562 606.714844 C 406.089844 606.699219 407.324219 606.742188 408.554688 606.847656 C 409.789062 606.949219 411.011719 607.113281 412.230469 607.339844 C 413.445312 607.5625 414.648438 607.847656 415.835938 608.1875 C 417.027344 608.53125 418.195312 608.929688 419.34375 609.386719 C 420.492188 609.84375 421.617188 610.355469 422.71875 610.925781 C 423.816406 611.492188 424.886719 612.113281 425.921875 612.785156 C 426.960938 613.457031 427.964844 614.179688 428.933594 614.953125 C 429.898438 615.722656 430.828125 616.539062 431.714844 617.402344 C 432.601562 618.265625 433.441406 619.167969 434.242188 620.113281 Z M 434.242188 620.113281 " fill-opacity="1" fill-rule="nonzero"/></g></g></g></g></svg>