<svg version="1.1" id="Layer_1" xmlns="http://www.w3.org/2000/svg" xmlns:xlink="http://www.w3.org/1999/xlink" x="0px" y="0px" viewBox="0 0 129 44" style="enable-background:new 0 0 129 44;" xml:space="preserve">
 <style type="text/css">
  .st0{clip-path:url(#SVGID_2_);}
	.st1{fill:#001952;}
 </style>
 <g>
  <defs>
   <rect id="SVGID_1_" width="129" height="44">
   </rect>
  </defs>
  <clipPath id="SVGID_2_">
   <use href="#SVGID_1_" style="overflow:visible;">
   </use>
  </clipPath>
  <g class="st0">
   <path class="st1" d="M65.4,25.5v-12h5.4V7.9h-5.4V0h-5.6v3.9c0,2.3-1.2,4-4,4h-1.3v5.5h4.8v13.1c0,4.9,3,7.7,7.8,7.7
			c2.3,0,3.4-0.4,3.8-0.6v-5.1c-0.3,0-1.3,0.2-2.1,0.2C66.4,28.7,65.4,27.8,65.4,25.5z">
   </path>
   <path class="st1" d="M14.2,7.3c-4,0-7,1.9-8.2,4.1V8H0V44h0.8h1.3c2.6,0,3.8-1.6,4-3.6v-9.5c1.3,2,4.2,3.6,7.9,3.6
			c7.5,0,12.2-5.9,12.2-13.6C26.2,13.2,21.9,7.3,14.2,7.3z M13.1,29c-4,0-7-3.2-7-8.2c0-4.9,2.9-8,7-8c4.2,0,7,3.2,7,8
			C20,25.8,17.1,29,13.1,29z">
   </path>
   <path class="st1" d="M112.9,7.2c-7.7,0-13.4,5.8-13.4,13.8c0,8,5.7,13.8,13.4,13.8c7.8,0,13.5-5.8,13.5-13.8
			C126.4,12.9,120.7,7.2,112.9,7.2z M112.9,29.2c-3.8,0-7.2-2.9-7.2-8.2c0-5.4,3.5-8.2,7.2-8.2c3.8,0,7.2,2.8,7.2,8.2
			C120.2,26.3,116.8,29.2,112.9,29.2z">
   </path>
   <path class="st1" d="M53.6,20.6c0-8.2-4.7-13.5-12.7-13.5c-6.6,0-12.6,5.4-12.6,13.6c0,8.8,6.2,13.9,13.3,13.9
			c6.2,0,10.3-3.7,11.7-8.2l0.2-0.7h-5.8c-1,2.1-2.9,3.6-6.1,3.6c-3.8,0-6.9-2.8-7.1-6.8h19C53.4,22.5,53.6,21.7,53.6,20.6z
			 M34.6,18.1c0.2-2.8,2.4-5.8,6.3-5.8c4.3,0,6.3,2.7,6.4,5.8H34.6z">
   </path>
   <path class="st1" d="M97.6,24.3H92c-0.6,2-2.4,4.8-6.5,4.8c-3.9,0-7.2-2.9-7.2-8.2c0-5.2,3.3-8,7.1-8c3.9,0,5.7,2.6,6.3,4.9h0h0
			h5.8c0.2,0-0.2-1.7-0.3-2c0,0,0,0,0,0c-1.1-4.2-4.9-8.5-11.9-8.5c-7.5,0-13.3,5.8-13.3,13.8c0,7.9,5.8,13.8,13.4,13.8
			c6.8,0,10.7-4.4,11.9-8.5C97.4,26.2,97.9,24.3,97.6,24.3z">
   </path>
   <path class="st1" d="M126.9,30.6c1.1,0,2,0.9,2,2c0,1.1-0.9,2-2,2c-1.1,0-2-0.9-2-2C124.9,31.5,125.8,30.6,126.9,30.6z
			 M126.9,34.2c0.9,0,1.6-0.7,1.6-1.6c0-0.9-0.7-1.6-1.6-1.6c-0.9,0-1.6,0.7-1.6,1.6C125.4,33.5,126.1,34.2,126.9,34.2z M126.9,32.9
			h-0.2v0.8h-0.5v-2.2h0.8c0.4,0,0.7,0.3,0.7,0.7c0,0.3-0.2,0.5-0.5,0.7l0.5,0.9h-0.5L126.9,32.9z M127,32.5c0.2,0,0.3-0.1,0.3-0.3
			c0-0.2-0.1-0.3-0.3-0.3h-0.3v0.6H127z">
   </path>
  </g>
 </g>
</svg>