<svg class="nav-logo" width="100" height="24" viewBox="0 0 100 24" fill="none" xmlns="http://www.w3.org/2000/svg" aria-label="GameStop">
                                    <path d="M42.9339 18.825H38.2269V9.9266C38.2269 8.73063 38.0952 7.86384 37.4479 7.86384C36.8005 7.86384 36.6689 8.73063 36.6689 9.9266V18.825H31.9618V9.9266C31.9618 8.73063 31.8302 7.86384 31.1828 7.86384C30.5354 7.86384 30.4038 8.73063 30.4038 9.9266V18.825H25.6967V5.2415H30.4038V6.64593C30.9963 5.63649 32.0496 4.97817 33.3992 4.97817C34.6829 4.97817 35.8021 5.43899 36.5043 6.7776C37.1187 5.54872 38.2818 4.97817 39.5545 4.97817C41.3869 4.97817 42.9559 6.14121 42.9559 9.08174V18.825H42.9339ZM19.3439 12.0442C18.7185 12.5599 17.7748 13.1085 17.7748 14.7653C17.7748 15.8735 18.0601 16.3234 18.5648 16.3234C19.0696 16.3234 19.3548 15.8735 19.3548 14.7653V12.0442H19.3439ZM18.6855 4.97817C21.8126 4.97817 24.0619 6.06441 24.0619 9.46577V18.825H19.3548V17.651C18.8501 18.4519 17.9394 19.0774 16.4692 19.0774C15.4597 19.0774 13.1007 18.7262 13.1007 15.2042C13.1007 10.3765 19.3548 12.0332 19.3548 9.09272C19.3548 7.89675 19.0696 7.40301 18.5648 7.40301C18.0601 7.40301 17.7748 7.89675 17.7748 9.09272V9.83882H13.2982V9.47674C13.3092 6.06441 15.5585 4.97817 18.6855 4.97817ZM50.8668 13.3609H55.3434C55.2776 17.3218 53.0064 19.0664 49.8574 19.0664C46.6645 19.0664 44.3603 17.2779 44.3603 13.1963V10.8483C44.3603 6.7776 46.6645 4.97817 49.8574 4.97817C53.0503 4.97817 55.3544 6.76662 55.3544 10.8483V12.2746H49.0783V14.6007C49.0783 15.7967 49.2319 16.6635 49.9781 16.6635C50.7242 16.6635 50.8778 15.7967 50.8778 14.6007V13.3609H50.8668ZM50.6364 9.4548C50.6364 8.25883 50.5047 7.39204 49.8574 7.39204C49.21 7.39204 49.0783 8.25883 49.0783 9.4548V10.168H50.6474V9.4548H50.6364ZM11.7402 8.16008V7.47981C11.7402 2.77277 8.95326 1.5 5.87009 1.5C2.78692 1.5 0 3.16776 0 7.87481V12.7025C0 15.8625 1.3386 19.0774 4.92649 19.0774C6.57231 19.0774 7.62563 18.2874 8.08646 17.5303L8.45951 18.836H11.7402V9.82785H6.04564V12.7245H7.31841V13.3389C7.31841 14.8092 7.10994 16.1697 6.18828 16.1697C5.25565 16.1697 5.05815 14.8202 5.05815 13.3389V7.15065C5.05815 5.7133 5.1569 4.39664 5.87009 4.39664C6.58328 4.39664 6.68203 5.7133 6.68203 7.15065V8.16008H11.7402ZM75.6528 18.5397V16.6525C75.4334 16.7842 75.2359 16.839 75.0274 16.839C74.2703 16.839 74.1167 16.071 74.1167 15.1932V7.0519H75.6638V5.25247H74.1167V3.40915H69.4097V5.25247H68.4661V7.0519H69.4097V15.4017C69.4097 17.8156 70.7264 19.0664 72.9537 19.0664C74.0838 19.0664 75.0165 18.814 75.6528 18.5397ZM62.8923 7.04093H67.5664V6.31677C67.5664 2.98124 65.339 1.5 62.0364 1.5C58.8765 1.5 56.5065 3.26651 56.5065 6.36065C56.5065 12.1539 63.0678 10.8812 63.0678 14.8092C63.0678 15.8406 62.6618 16.1807 62.1681 16.1807C61.6743 16.1807 61.2684 15.8406 61.2684 14.8092V13.3828H56.5394V14.0631C56.5394 17.5522 58.8216 19.0883 62.223 19.0883C65.4817 19.0883 67.9065 17.2779 67.9065 14.0302C67.9065 7.56759 61.1587 9.35605 61.1587 5.77913C61.1587 4.74775 61.5756 4.40761 62.0255 4.40761C62.4643 4.40761 62.8923 4.74775 62.8923 5.77913V7.04093ZM82.5653 9.4548C82.5653 8.25883 82.4336 7.39204 81.7863 7.39204C81.1389 7.39204 80.9963 8.25883 80.9963 9.4548V14.5898C80.9963 15.7857 81.1279 16.6525 81.7863 16.6525C82.4336 16.6525 82.5653 15.7857 82.5653 14.5898V9.4548ZM81.7863 4.98914C84.9791 4.98914 87.2833 6.7776 87.2833 10.8592V13.2073C87.2833 17.2779 84.9791 19.0774 81.7863 19.0774C78.5934 19.0774 76.2892 17.2889 76.2892 13.2073V10.8592C76.2892 6.7776 78.5934 4.98914 81.7863 4.98914ZM94.9857 9.9266C94.9857 8.73063 94.8541 7.86384 94.2067 7.86384C93.5594 7.86384 93.4277 8.73063 93.4277 9.9266V14.118C93.4277 15.3139 93.5594 16.1807 94.2067 16.1807C94.8541 16.1807 94.9857 15.3139 94.9857 14.118V9.9266ZM96.1817 4.97817C98.409 4.97817 99.6928 6.7776 99.6928 10.8483V13.1963C99.6928 17.267 98.409 19.0664 96.1817 19.0664C95.1174 19.0664 94.0202 18.5397 93.4167 17.6181V22.2154H88.7097V5.2415H93.4167V6.42649C94.0202 5.5158 95.1174 4.97817 96.1817 4.97817Z" fill="black"></path>
                                </svg>