<svg version="1.1" id="Layer_1" xmlns="http://www.w3.org/2000/svg" xmlns:xlink="http://www.w3.org/1999/xlink" x="0px" y="0px" viewBox="0 0 226.3 226.4" style="enable-background:new 0 0 226.3 226.4;" xml:space="preserve">
 <style type="text/css">
  .st0{fill-rule:evenodd;clip-rule:evenodd;fill:#FFFFFF;}
	.st1{fill-rule:evenodd;clip-rule:evenodd;fill:#F96302;}
 </style>
 <g>
  <path class="st0" d="M0,0h226.3v226.3H0V0z">
  </path>
  <path class="st1" d="M0,0h142c11.4,0,22.9,0,34.3,0c-3.2,3.2-6.4,6.4-9.6,9.6c1.3,1.3,2.6,2.6,3.8,3.9c2.9-2,6.2-3.6,9.7-3.9
		c3.2-0.3,6.4,0.5,9.4,1.8c1.1,0.5,2.2,1.2,3.4,1.4c1.2-0.1,2.2-1.2,2.6-2.3c0.4-0.8,0-1.7-0.6-2.2c-2.8-2.8-5.5-5.5-8.3-8.3
		C200,0,213.2,0,226.3,0c0,12.8,0,25.7,0,38.5c-2.7-2.7-5.3-5.4-8-8c-0.7-0.7-1.9-1.1-2.9-0.7c-0.6,0.3-1.3,0.8-1.5,1.5
		c-0.4,1.4,0.3,2.7,0.8,4c1.7,3.5,2.4,7.5,1.9,11.4c-0.3,2.6-1.3,5.2-2.7,7.5c-0.4,0.5-0.7,1.1-1.1,1.7c1.4,1.2,2.5,2.6,3.9,3.8
		c3.1-3.2,6.4-6.4,9.6-9.6c0,21.5,0,42.9,0,64.4c-0.6,0.2-1.3,0.6-1.9,0.3c-0.9-0.5-1.5-1.4-2.2-2c-7.7-7.7-15.3-15.4-23.1-23
		c-3.1,3.1-6.1,6.2-9.2,9.2c1.6,1.9,3.5,3.5,5.2,5.3c6.2,6.2,12.4,12.4,18.6,18.5c0.5,0.5,1.1,1,1.4,1.7c0.1,0.8-0.5,1.4-0.7,2.2
		c-0.3,0.8,0.4,1.8,1.2,1.9c0.8,0.1,1.4-0.4,1.9-0.9c2.9-2.9,5.8-5.8,8.7-8.7v107.5H118.8c2.8-2.8,5.5-5.5,8.3-8.2
		c-9.4-9.4-18.8-18.7-28.1-28.1c-3.1,2.9-6,6-9.1,9c-0.6,0.7-1.4,1.3-1.7,2.2c-0.1,0.9,0.7,1.7,1.5,1.8c0.8-0.1,1.4-0.6,2.2-0.8
		c0.7,0,1.2,0.5,1.7,0.9c5.6,5.6,11.1,11.2,16.7,16.8c1.4,1.5,2.9,2.8,4.2,4.3c0.6,0.7,0.2,1.5-0.1,2.2H50
		c5.1-5.1,10.1-10.1,15.2-15.2c0.9-0.9,1.9-1.9,2.1-3.3c0.2-1.6-1.4-3.2-3-2.9c-1.3,0.3-2.4,1.3-3.8,1.3c-0.9-0.1-1.5-0.7-2.1-1.3
		c-12.1-12.1-24.2-24.2-36.2-36.2c-0.8-0.8-1.8-1.6-2.1-2.8c0-1.4,0.9-2.5,1.3-3.8c0.5-1.6-1-3.3-2.7-3.2c-1.1,0.1-2.1,0.7-2.9,1.5
		C10.6,165.8,5.2,171,0,176.3C0,117.6,0,58.8,0,0">
  </path>
  <path class="st0" d="M163.3,13.1c0.2-0.2,0.6-0.5,0.8-0.1c16.6,16.5,33.1,33.1,49.7,49.7c-5.8,5.8-11.6,11.6-17.4,17.4
		c-0.8,0.7-1.7,1.3-2.7,1.4c-1.4,0.1-2.9-1.2-2.8-2.7c0-1.4,1.3-2.6,1.3-4c0-0.9-0.7-1.6-1.3-2.3c-12.3-12.3-24.6-24.5-36.8-36.8
		c-0.7-0.7-1.4-1.5-2.5-1.4c-1.5,0-2.7,1.4-4.3,1.3c-0.9,0-1.6-0.7-2.1-1.4c-0.6-1.3,0-2.8,0.9-3.8
		C151.8,24.6,157.5,18.8,163.3,13.1 M187.1,17.9c0.5-0.9,1.4-1.7,2.4-1.5c1.2,0.1,2,1.1,2.8,1.9c4.8,4.8,9.5,9.5,14.3,14.3
		c0.9,0.9,2,1.7,2.2,3c0.1,1.4-1.1,2.6-2.4,2.7c-1.1,0-2.1-0.6-3-1.1c-2-1.2-4.3-2.1-6.7-2c-1.2,0-2.4,0.5-3.5,1
		c-1.3-1.4-2.8-2.7-4-4.1c0.4-1.1,0.9-2.1,1-3.2c0.2-2.6-0.9-5.1-2.2-7.2C187.2,20.4,186.7,19.1,187.1,17.9 M82.4,30.5
		c2.6-2.7,5.3-5.3,7.8-7.9c2.4,2.4,4.8,4.8,7.2,7.2c0.8,0.8,0.1,2-0.8,2.4c-0.7,0.1-1.4-0.4-2-0.6c-2.6-1.3-5.8-1.4-8.3,0
		c-0.7,0.3-1.2,0.9-1.9,1C83.6,31.8,83,31.1,82.4,30.5 M80.8,32c3.5,3.4,6.9,6.9,10.3,10.3c5.4,5.4,10.8,10.8,16.2,16.2
		c-3.1,3.1-6.2,6.2-9.3,9.3c-0.6,0.7-1.9,1-2.5,0.1c-0.8-0.8,0.1-1.8,0.3-2.6c0.3-0.6-0.2-1.2-0.6-1.6C88.9,57.4,82.7,51.2,76.5,45
		c-0.6-0.5-1-1.2-1.7-1.5c-0.9-0.2-1.7,0.6-2.6,0.7c-0.7-0.1-1.4-0.8-1.3-1.5c0-0.6,0.4-1.1,0.8-1.5C74.7,38.1,77.7,35.1,80.8,32
		 M93.2,35.8c-0.3-0.8,0.2-1.7,1.1-1.9c0.6-0.1,1.1,0.4,1.5,0.8c2.6,2.6,5.1,5.2,7.7,7.7c0.5,0.5,1.1,1,1.1,1.7
		c0.1,0.7-0.6,1.5-1.4,1.4c-1,0-1.8-0.8-2.7-1.1c-1.3-0.6-2.9-0.7-4.3,0c-0.7-0.7-1.4-1.4-2.1-2c0.3-1,0.6-2.2,0.3-3.3
		C94.4,37.9,93.6,36.9,93.2,35.8 M138.7,37.7c0.6-0.6,1.4-1.1,2.4-1.2c1.6-0.2,3.3,1.3,2.9,2.9c-0.2,1.4-1.4,2.6-1.3,4.1
		c0.2,1,1.1,1.8,1.8,2.5c12.1,12.1,24.3,24.2,36.4,36.4c0.7,0.6,1.3,1.4,2.3,1.4c1.4,0,2.5-1.1,3.9-1.3c1.6-0.3,3.1,1.3,2.9,2.9
		c-0.1,1.1-0.7,2-1.5,2.7c-6.1,6.1-12.2,12.2-18.3,18.3c-0.8,0.8-1.8,1.5-2.9,1.5c-1.3,0.1-2.5-1-2.7-2.3c-0.2-1.7,1.4-2.9,1.3-4.6
		c-0.1-0.8-0.6-1.4-1.1-2c-10.7-10.6-21.3-21.3-32-32c8.8,16.4,17.7,32.7,26.5,49.1c0.1,0.2,0.3,0.5,0.4,0.8
		c-0.6,0.6-1.3,1.2-1.9,1.9c-17.7-8.7-35.3-17.5-52.9-26.2c-2.8-1.4-5.5-3-8.7-3.4c-1-0.1-1.8,0.7-2.5,1.3c-0.8,0.6-1.8,1-2.8,0.7
		c-1.2-0.5-2-1.9-1.6-3.2c0.2-0.9,0.8-1.6,1.4-2.2c5.7-5.7,11.4-11.4,17.1-17c8.9,4.3,17.8,8.6,26.7,13c0.3,0.2,0.6,0.4,0.9,0.7
		c0.1-0.2,0.3-0.3,0.4-0.5l-0.3,0c-4.7-8.9-9.6-17.7-14.3-26.6C127,49.4,132.8,43.5,138.7,37.7 M107.5,41.7c0.4-0.8,1.6-0.9,2.2-0.2
		c2.4,2.4,4.8,4.8,7.3,7.3c-2.7,2.7-5.4,5.4-8.2,8.2c-0.6-0.7-1.5-1.3-1.9-2.1c0.8-1.3,1.6-2.7,1.8-4.3c0.4-2.2,0-4.4-0.9-6.4
		C107.5,43.3,107,42.4,107.5,41.7 M67.6,45.2c0.5-0.5,1-1,1.7-1.2c0.7-0.1,1.5,0.3,1.6,1c0.2,0.8-0.5,1.5-0.6,2.3
		c-0.1,0.6,0.4,1.1,0.8,1.5c6.3,6.3,12.7,12.7,19,19c0.4,0.4,0.9,0.9,1.5,1c0.8-0.1,1.4-0.6,2.1-0.7c0.9-0.1,1.7,0.9,1.4,1.7
		c-0.1,0.6-0.6,1.1-1,1.6c-3.1,3.1-6.2,6.2-9.3,9.2c-0.5,0.5-1.3,1.1-2.1,0.9c-0.5-0.2-0.8-0.5-1-1c-0.2-1,0.9-1.9,0.6-2.9
		c-0.2-0.4-0.6-0.7-0.9-1c-2.9-2.9-5.8-5.8-8.7-8.7c-1,1-2,2.1-3.1,3.1c-0.7-0.7-1.4-1.4-2.1-2.1c1-1,2.1-2.1,3.1-3.1
		c-2.6-2.5-5.1-5.1-7.7-7.6c-0.5-0.5-1-1.1-1.7-1.5c-1.2-0.4-2.3,1.3-3.4,0.4c-0.9-0.6-0.6-1.9,0.1-2.6
		C61.3,51.5,64.5,48.4,67.6,45.2">
  </path>
  <path class="st0" d="M55.4,57.6c0.7-0.5,1.8-0.2,2.1,0.6c0.3,1-0.5,1.8-0.6,2.8c0,0.5,0.4,0.9,0.7,1.2c6.6,6.6,13.1,13.2,19.7,19.7
		c1.2,1.3,2.7-0.9,4,0c0.8,0.7,0.5,2-0.2,2.6c-3.1,3.1-6.2,6.2-9.3,9.3c-0.5,0.5-1,1-1.7,1.3c-0.8,0.2-1.7-0.3-1.8-1.1
		c-0.1-0.9,0.7-1.7,0.7-2.6c-0.1-0.4-0.4-0.7-0.7-1C62.2,84.1,56,77.9,49.8,71.7c-0.6-0.5-1.1-1.2-1.9-1.5c-0.9,0-1.6,0.6-2.4,0.7
		c-0.7,0-1.3-0.6-1.4-1.3c-0.1-0.7,0.5-1.3,1-1.8c3.1-3.1,6.2-6.2,9.2-9.3C54.7,58.1,55,57.8,55.4,57.6 M38.2,74.6
		c1.4-1.4,2.8-2.8,4.2-4.2c2.5,2.4,4.9,4.9,7.4,7.4c0.4,0.5,1,0.9,1.2,1.5c0.3,1.2-1,2.4-2.2,1.9c-1.2-0.5-2.1-1.4-3.2-2.1
		c-1.9-1.2-4.1-1.9-6.3-1.6c-0.6-0.7-1.4-1.3-1.9-2C37.6,75.1,37.9,74.8,38.2,74.6 M27.9,84.9c2.7-2.6,5.3-5.3,7.9-7.9
		c5,5,10,10,15,15c2.8,2.7,5.4,5.5,8.2,8.2c0.8,0.9,1.8,0.1,2.7-0.2c0.9-0.4,1.9,0.4,1.8,1.3c0,0.6-0.4,1.1-0.8,1.6
		c-3.2,3.2-6.4,6.4-9.6,9.6c-0.5,0.5-1,0.9-1.7,0.9c-0.7,0.1-1.5-0.6-1.4-1.4c0-0.8,0.6-1.4,0.6-2.1c0-0.6-0.5-1-0.9-1.5
		c-7.6-7.5-15.1-15.1-22.7-22.6C27.4,85.5,27.6,85.2,27.9,84.9 M206.2,82.6c2.9,2.9,5.9,5.8,8.8,8.8c0.9,0.9,0.3,2.6-1,2.8
		c-1.1,0.2-2-0.7-2.9-1.3c-2.4-1.6-5.1-3.1-8.1-2.6c-0.8-0.7-1.5-1.4-2.2-2.3C202.7,86.2,204.4,84.4,206.2,82.6 M25.4,87.4
		c0.9,0.3,1.4,1.3,2.1,1.9c-0.4,2.8,0.9,5.3,2.5,7.5c0.5,0.7,1,1.3,1.3,2.1c0.3,1-0.7,2.1-1.8,2c-0.6,0-1-0.5-1.4-0.9
		c-2.6-2.6-5.2-5.2-7.8-7.8C22.1,90.7,23.7,89,25.4,87.4 M78.3,100.8c4.7-1.5,9.9-1.7,14.7-0.7c8.3,1.8,15.6,6.6,21.4,12.6
		c5.7,5.8,10.3,13.1,11.8,21.2c0.9,4.4,0.7,9.1-0.6,13.5c-1.3,4.3-3.5,8.3-6.4,11.7c-1.2-1.3-2.6-2.5-3.8-3.9c0-0.6,0.4-1.2,0.5-1.8
		c0.6-2.1,0-4.4-1.6-6c-11.7-11.8-23.5-23.5-35.3-35.3c-1.1-1.1-2.4-2-4-2.1c-1.3-0.2-2.5,0.3-3.7,0.7c-0.5,0.3-0.8-0.3-1.1-0.6
		c-1-1-2-1.9-2.9-3c0-0.1,0-0.2,0-0.3C70.6,104.2,74.3,102.1,78.3,100.8 M110.4,99.5c1.1,0.4,2.1,0.9,3.1,1.4
		c3.8,1.9,7.6,3.8,11.5,5.7c0.3,0.2,0.6,0.4,0.9,0.7c3.2,3.3,6.5,6.5,9.7,9.8c1.8,1.9,4,3.3,6.4,4.2c1.7,0.6,3.6,0.6,5.3,0
		c0.9-0.3,1.8-0.6,2.7-0.3c0.9,0.4,1.6,1.3,1.6,2.2c-0.1,1.3-0.9,2.4-1.8,3.3c-2.9,2.9-5.8,5.9-8.8,8.8c-0.8,0.7-1.7,1.4-2.8,1.6
		c-1.6,0.2-3.1-1.4-2.6-2.9c0.5-1.5,1.1-3.1,0.8-4.7c-0.4-2.7-1.9-5.1-3.6-7.2c-6.4-6.5-12.9-12.9-19.4-19.4
		C112.4,101.6,111.3,100.6,110.4,99.5 M182.8,106c1.8-1.8,3.6-3.6,5.4-5.4c0.8,0.6,1.5,1.4,2.2,2.1c-0.3,2.4,0.5,4.7,1.7,6.7
		c0.6,1.1,1.6,2.1,2.1,3.3c0.3,0.6,0.1,1.2-0.1,1.8c3,2,5.6,4.6,7.7,7.5c2.4,3.4,4.1,7.4,4,11.7c0,4-1.7,7.9-4.3,10.9
		c-0.7-0.7-1.5-1.4-2.1-2.2c0.1-0.9,0.5-1.7,0.3-2.6c-0.2-1.1-1.1-1.9-1.9-2.7c-6.3-6.2-12.5-12.5-18.8-18.8
		c-0.6-0.6-1.4-1.2-2.2-1.3c-0.8-0.1-1.7,0.1-2.4,0.4c-0.7-0.7-1.5-1.4-2.2-2.1c3.2-2.7,7.3-4.4,11.5-4.2c1.6,0,3.2,0.3,4.8,0.7
		C186.7,109.9,184.7,108,182.8,106 M58.5,119.9c1.3-3.6,3.4-7,5.8-9.9c1.2,1.2,2.5,2.4,3.7,3.7c0.2,0.8-0.4,1.5-0.5,2.2
		c-0.6,2,0.2,4.3,1.7,5.8c11.5,11.6,23.1,23.1,34.7,34.7c1.1,1.2,2.5,2.4,4.2,2.6c1.5,0.2,3-0.3,4.4-0.8c1.3,1.3,2.6,2.5,3.8,3.8
		c-2.8,2.4-6.1,4.4-9.5,5.7c-5.2,2-11.1,2.4-16.6,1.1c-8.3-1.8-15.7-6.8-21.6-13c-5.4-5.7-9.8-12.6-11.3-20.4
		C56.3,130.3,56.6,124.9,58.5,119.9 M166.5,126.8c0.3-3.6,1.9-7.1,4.3-9.8c0.7,0.7,1.4,1.4,2.1,2.1c-0.3,0.9-0.7,1.8-0.4,2.7
		c0.1,0.8,0.7,1.5,1.3,2c6.3,6.3,12.5,12.5,18.8,18.8c0.7,0.7,1.4,1.6,2.5,1.9c1,0.3,1.9-0.1,2.9-0.4c0.7,0.7,1.5,1.4,2.1,2.2
		c-3,2.5-6.7,4.2-10.7,4.2c-3.8,0.2-7.6-1.2-10.8-3.2c-2.3-1.5-4.4-3.3-6.2-5.3c0.8,2.8,0.6,5.9-0.7,8.5c-1.3,2.6-3.3,4.7-5.3,6.7
		c-0.7-0.7-1.4-1.5-2.2-2.2c0.6-1,1-2.2,0.6-3.4c-0.5-1.2-1.4-2-2.3-2.9c-1.8-1.8-3.5-3.6-5.3-5.3c-1-1-2.2-2.1-3.7-2.2
		c-0.9-0.1-1.7,0.4-2.4,0.8c-0.7-0.7-1.4-1.4-2.2-2.2c2.9-2.9,6.1-5.8,10.3-6.4c3.4-0.6,6.9,0.9,9.3,3.3
		C167.1,133.7,166.2,130.2,166.5,126.8 M41.2,135.1c0.7-0.7,1.6-1.2,2.6-1.3c1.6-0.1,3.1,1.6,2.7,3.2c-0.4,1.2-1.2,2.3-1.3,3.6
		c0.1,1.1,1,1.9,1.8,2.7c12.2,12.2,24.4,24.4,36.6,36.6c0.6,0.5,1.2,1.1,2,1.2c1.4,0,2.4-1,3.8-1.3c1.6-0.3,3.1,1.1,3.1,2.7
		c0,1.1-0.6,2-1.4,2.8c-6.1,6.1-12.3,12.3-18.4,18.4c-0.8,0.8-1.8,1.5-3,1.5c-1.4,0-2.8-1.3-2.6-2.8c0.1-1.4,1.3-2.6,1.4-4
		c0-0.9-0.7-1.5-1.3-2.2c-5.5-5.5-11-10.9-16.4-16.4c-0.2-0.2-0.5-0.6-0.8-0.3c-1.9,1.8-3.7,3.8-5.6,5.6c-1.3-1.3-2.6-2.6-3.8-3.9
		c1.8-1.9,3.7-3.8,5.7-5.7c0-0.1,0-0.3,0-0.4c-5.2-5.1-10.2-10.2-15.4-15.3c-0.8-0.7-1.5-1.7-2.6-1.9c-1.5-0.1-2.7,1.1-4.1,1.3
		c-1.8,0.3-3.4-1.7-2.8-3.4c0.3-1.2,1.3-2,2.1-2.9C29.3,147,35.3,141.1,41.2,135.1 M147.3,141.5c2.9,2.7,5.5,5.5,8.3,8.2
		c5.3,5.3,10.7,10.7,16,16c0.4,0.3,0.7,0.7,1.2,0.8c1,0.1,1.8-0.9,2.9-0.7c0.6,0.2,1.2,0.8,1.1,1.5c0,0.9-0.8,1.6-1.4,2.2
		c-3.4,3.3-6.7,6.7-10,10c-0.7,0.8-2.1,0.4-2.6-0.5c-0.7-1.1,1.1-2.3,0.2-3.3c-6.9-6.9-13.8-13.8-20.7-20.7c-0.5-0.5-0.9-1-1.5-1.3
		c-1-0.3-1.8,0.6-2.8,0.7c-0.7-0.1-1.4-0.7-1.4-1.5c-0.1-0.8,0.5-1.5,1.1-2C141,147.8,144.2,144.6,147.3,141.5 M126.1,162.7
		c2.8-2.8,5.6-5.7,8.5-8.4c2.5,2.6,5.1,5.1,7.7,7.7c0.9,0.8,0,2.1-0.9,2.5c-0.6,0.1-1.2-0.3-1.7-0.5c-2.2-1.1-4.7-1.6-7.1-1
		c-1.5,0.3-2.9,1.2-4.2,1.9C127.6,164.1,126.9,163.4,126.1,162.7 M114.6,174.3c3.3-3.3,6.6-6.6,9.9-9.9c5.3,5.3,10.6,10.6,15.9,15.9
		c4.1,4.1,8.1,8.2,12.2,12.2c-3.2,3.3-6.5,6.5-9.6,9.7c-0.5,0.5-1.1,0.8-1.7,1c-0.6-0.2-1.3-0.4-1.5-1.1c-0.4-1.1,0.8-2,0.7-3.1
		c-0.5-0.9-1.3-1.6-2-2.3c-5.8-5.8-11.5-11.6-17.3-17.3c-1-0.9-1.9-2.1-3.1-2.8c-1.2-0.2-2.3,1.3-3.5,0.5
		C113.5,176.4,113.8,175,114.6,174.3 M137.6,168.4c-0.4-1,0.5-2.1,1.5-1.9c0.5,0.1,0.8,0.4,1.2,0.8c2.5,2.5,5,5,7.5,7.5
		c0.8,0.8,1.9,1.5,2.2,2.7c-0.3,0.5-0.6,1.2-1.4,1.3c-1.2,0.1-2-0.8-3.1-1.2c-1.4-0.7-3.2-0.7-4.6,0c-0.8-0.8-1.5-1.5-2.3-2.3
		c0.5-1.1,0.8-2.4,0.4-3.6C138.8,170.5,138,169.5,137.6,168.4 M152.9,174.6c0.5-0.8,1.7-0.9,2.3-0.2c2.6,2.6,5.2,5.2,7.7,7.8
		c-2.9,2.9-5.7,5.8-8.7,8.6c-0.7-0.7-1.4-1.4-2.1-2.2c2.5-3.1,2.9-7.7,1.2-11.3C153,176.5,152.3,175.4,152.9,174.6">
  </path>
  <path class="st1" d="M0,184c0.9-0.4,1.9-1,2.9-1c1.3,0.2,2,1.4,2.9,2.2c12,11.9,23.9,23.8,35.8,35.7c0.7,0.7,1.5,1.5,1.6,2.5
		c0,1-0.6,1.9-1,2.8c-14.1,0-28.2,0-42.2,0C0,212.2,0,198.1,0,184">
  </path>
  <path class="st0" d="M110.6,183.4c4.2-0.4,8.4,1.2,11.9,3.5c2.7,1.8,5.3,3.9,7.2,6.6c2.3,3.1,3.8,6.9,3.8,10.8
		c0.1,4.5-1.7,9-4.9,12.1c-0.7-0.7-1.5-1.4-2.2-2.2c0.4-0.8,0.9-1.7,0.8-2.6c-0.2-1.4-1.2-2.6-2.2-3.6c-5.3-5.3-10.7-10.7-16-16
		c-1.1-1.1-2.3-2.2-3.9-2.4c-0.9-0.1-1.7,0.4-2.4,0.8c-0.7-0.8-1.6-1.3-2.1-2.3C103.3,185.5,106.9,183.6,110.6,183.4 M206.7,212.9
		c0-4.3,3.5-7.4,7.5-7.4c4,0,7.5,3.1,7.5,7.4c0,4.3-3.5,7.4-7.5,7.4C210.2,220.4,206.7,217.2,206.7,212.9z M214.2,219.1
		c3.4,0,6-2.6,6-6.2c0-3.5-2.7-6.2-6-6.2c-3.4,0-6.1,2.7-6.1,6.2C208.2,216.5,210.8,219.1,214.2,219.1z M212.7,217.2h-1.3v-8.6h3.3
		c2,0,3,0.7,3,2.4c0,1.5-1,2.2-2.2,2.4l2.4,3.8h-1.5l-2.3-3.7h-1.5V217.2z M214.2,212.4c1.1,0,2.1-0.1,2.1-1.4c0-1.1-1-1.3-1.9-1.3
		h-1.8v2.7L214.2,212.4L214.2,212.4z">
  </path>
 </g>
</svg>