<?xml version="1.0" encoding="utf-8" ?><svg xmlns="http://www.w3.org/2000/svg" xmlns:xlink="http://www.w3.org/1999/xlink" width="1024" height="1024" viewBox="0 0 1024 1024"><path d="M397.604 94.4879C424.693 66.398 479.75 24.5488 516.755 12.0067C514.715 19.4908 511.693 26.9471 509.421 34.509C503.877 52.3592 500.073 70.704 498.064 89.2869C530.67 73.4625 570.85 61.074 606.561 54.4749C611.314 53.5967 624.014 51.2816 628.383 51.6368L629.17 52.0899C628.77 54.9285 622.488 61.4427 620.549 64.4337C609.834 80.9615 596.894 101.59 591.483 120.601C619.023 119.798 660.765 116.8 687.761 123.19C683.472 129.204 671.612 139.778 665.716 145.81C653.457 158.411 641.49 171.293 629.824 184.444C644.4 193.476 659.738 207.749 673.442 218.319C681.649 224.65 690.743 230.636 699.088 236.88C700.451 237.9 700.581 238.503 700.917 239.904C698.543 243.08 667.787 248.775 660.82 250.913C661.274 255.312 661.589 258.497 661.592 262.891C664.716 264.924 666.738 266.643 669.177 269.541C667.61 275.861 666.768 279.052 663.816 284.782C667.574 294.519 669.75 302.036 667.454 312.584C674.027 315.364 680.712 317.869 687.492 320.095C694.098 322.262 708.55 326.109 713.843 329.743C732.27 342.392 715.022 371.488 709.189 384.729C714.514 398.286 724.614 401.105 727.667 412.59C726.077 419.085 723.013 423.629 721.584 430.509C723.887 435.789 730.483 444.371 731.056 448.653C732.646 460.544 727.501 471.975 729.342 484.449C732.159 503.539 750.581 517.511 742.214 537.974C723.871 578.098 652.793 582.294 626.898 615.989C619.024 626.234 610.863 653.402 607.593 666.175C620.933 669.21 629.887 672.723 637.234 685.174C650.725 708.039 655.523 736.013 660.42 761.798C663.989 780.59 668.72 801.443 664.509 820.266L664.807 820.749C667.511 825.062 671.352 829.854 674.365 834.096C680.287 842.401 685.959 850.88 691.375 859.523C722.804 910.47 746.22 965.943 760.804 1024L756.346 1024L733.887 1024L728.82 1024L727.659 1024L717.757 1024L518.147 1024L513.38 1024L499.113 1024L493.579 1024L488.866 1024L472.406 1024L466.784 1024L367.562 1024L345.292 1024L339.597 1024L186.238 1024L150.722 1024L146.512 1024L142.193 1024L137.312 1024C138.347 1014.06 142.115 1001.26 144.765 991.496C156.143 949.56 169.884 907.779 187.12 867.866C192.681 854.988 201.14 843.742 205.388 829.784C207.362 823.297 214.059 813.766 217.106 807.523C230.389 785.487 250.076 763.418 269.537 746.777C278.024 739.52 299.182 725.427 309.542 722.106C309.575 705.587 312.076 689.093 314.674 672.803C315.748 666.064 317.044 657.004 318.856 650.625C314.761 655.895 312.634 658.877 307.469 663.122C301.405 639.666 298.86 611.662 296.969 587.392C287.969 598.095 287.115 613.927 279.832 626.418C264.69 652.388 242.056 670.434 218.509 688.361C214.77 691.229 205.51 699.226 201.659 700.096L201.105 699.624C201.316 696.047 202.639 693.012 203.506 689.605C207.61 673.484 208.401 657.05 208.839 640.511C193.062 654.533 171.099 669.422 150.204 674.013C157.384 663.566 165.009 652.414 168.787 640.228C174.774 620.919 175.109 598.685 183.186 579.874C191.558 560.374 211.716 543.279 229.184 532.017C228.313 530.745 227.032 528.989 226.347 527.685C226.388 516.644 224.562 513.332 234.401 506.692C232.901 502.759 232.314 500.372 231.556 496.191C209.745 513.58 191.996 528.239 167.339 541.351C167.988 532.751 172.253 515.17 174.463 506.612C180.301 483.999 187.039 461.444 193.196 438.857C184.219 439.222 174.869 440.256 165.895 441.11C145.822 443.022 125.61 442.946 105.541 444.2C107.355 439.648 112.029 433.429 114.9 429.276C129.534 408.105 144.951 387.27 161.267 367.362C163.026 365.216 164.872 363.034 166.444 360.754C144.432 352.708 120.992 346.548 98.9839 338.109C90.7911 334.967 82.959 332.419 75.1082 328.331C80.671 322.973 89.5745 316.915 95.9761 312.484C111.62 301.589 127.914 291.658 144.767 282.746C155.173 277.21 165.587 272.469 176.045 266.774C156.267 248.799 136.336 230.368 117.608 211.316C113.233 206.864 105.207 198.933 102.012 193.94C118.462 192.208 133.71 190.33 150.302 189.107C171.792 187.584 193.339 186.996 214.881 187.345C211.602 151.367 211.255 102.609 223.562 68.2607C234.058 75.7595 244.82 85.3822 255.329 93.4162C264.372 100.394 273.504 107.255 282.722 113.999C288.612 118.256 295.473 122.768 301.154 127.067C304.969 117.445 309.986 104.326 314.564 95.1758C328.775 66.769 352.389 33.7201 378.102 14.4902C381.442 42.9817 386.525 67.848 397.604 94.4879Z"/><path fill="#E2935F" d="M270.108 789.26C291.367 781.286 317.253 788.126 337.149 797.062C374.984 814.056 396.504 841.533 415.682 876.706C425.771 895.527 434.529 915.033 441.892 935.079C448.411 952.483 453.973 970.232 458.553 988.244C461.51 1000.04 463.807 1012.38 466.784 1024L367.562 1024L345.292 1024L339.597 1024L186.238 1024C189.604 1002.77 197.205 979.372 202.744 958.514C212.289 922.572 224.578 888.14 237.75 853.419C247.074 828.841 254.508 810.685 270.108 789.26Z"/><path fill="#B17151" d="M293.434 902.865C296.091 904.678 307.978 927.149 310.651 931.565C329.352 962.463 347.303 994.062 367.562 1024L345.292 1024C341.414 1014.95 336.486 1005.9 332.516 996.767C319.214 966.17 304.752 934.222 293.434 902.865Z"/><path d="M339.597 1024C335.773 1015.33 330.938 1006.37 327.315 997.86C316.52 972.509 305.518 947.405 297.109 921.126C293.649 910.314 290.076 900.213 287.834 889.041C289.743 893.578 291.581 898.288 293.434 902.865C304.752 934.222 319.214 966.17 332.516 996.767C336.486 1005.9 341.414 1014.95 345.292 1024L339.597 1024Z"/><path fill="#E2935F" d="M326.915 740.491C338.134 741.984 347.306 743.229 358.254 746.555C393.682 757.32 423.344 778.334 445.969 807.399C472.639 841.66 488.754 878.751 504.256 918.885C508.194 929.079 511.934 943.772 515.881 952.982C534.509 968.363 643.694 999.55 671.818 1006.83C674.691 1007.58 689.688 1011.6 692.454 1011.95C689.219 997.323 683.168 982.071 677.887 968.065C656.788 912.103 625.738 843.924 588.099 797.315L624.74 810.475C632.742 822.525 639.538 834.884 646.582 847.475C655.417 862.909 663.728 878.637 671.501 894.632C681.877 916.351 691.465 940.957 699.898 963.552C706.11 980.195 714.799 1006.36 717.757 1024L518.147 1024L513.38 1024L499.113 1024L493.579 1024L488.866 1024L472.406 1024C468.626 1006.16 464.452 988.399 459.885 970.74C446.152 927.433 422.388 865.962 392.209 831.579C379.595 817.12 364.355 805.183 347.295 796.399C329.213 786.977 309.017 780.921 288.615 779.993C293.92 775.053 299.333 767.405 304.351 761.868C311.4 754.089 318.82 747.167 326.915 740.491Z"/><path d="M493.579 1024C494.761 991.188 491.896 958.356 485.049 926.245C483.483 918.758 481.708 911.316 479.727 903.928C478.63 899.758 476.586 892.773 475.915 888.697C492.225 920.803 501.891 988.354 499.113 1024L493.579 1024Z"/><path fill="#B17151" d="M459.885 970.74C463.497 972.865 468.046 983.845 470.503 988.218C477.092 999.947 483.416 1011.69 488.866 1024L472.406 1024C468.626 1006.16 464.452 988.399 459.885 970.74Z"/><path d="M513.38 1024C514.019 1013.19 514.994 1002.44 515.307 991.61C515.436 987.157 515.603 982.355 516.538 978.023C518.106 995.472 518.657 1006.81 518.147 1024L513.38 1024Z"/><path fill="#B17151" d="M142.193 1024C150.42 987.92 160.758 952.354 173.153 917.485C178.922 901.008 185.448 883.384 192.902 867.602C207.91 835.822 235.999 800.229 270.108 789.26C254.508 810.685 247.074 828.841 237.75 853.419C224.578 888.14 212.289 922.572 202.744 958.514C197.205 979.372 189.604 1002.77 186.238 1024L150.722 1024L146.512 1024L142.193 1024Z"/><path d="M146.512 1024C148.575 1017.12 159.567 978.258 162.201 974.243C161.961 976.605 161.485 978.556 160.989 980.85C157.861 995.306 154.252 1009.64 150.722 1024L146.512 1024Z"/><path fill="#E2935F" d="M639.505 813.462C644.502 816.038 650.733 817.948 656.131 819.695C689.143 870.973 717.108 927.423 736.362 985.38C739.057 993.492 740.708 1002.73 744.006 1010.54L754.411 1017.8C755.035 1019.73 755.866 1022.07 756.346 1024L733.887 1024C729.237 1008.42 724.928 991.671 719.789 976.49C708.213 942.086 694.2 908.55 677.857 876.138C669.17 858.906 660.413 841.844 648.978 826.261C646.262 822.559 642.526 816.73 639.505 813.462Z"/><path fill="white" d="M719.259 1011.21C722.267 1012.46 723.424 1015.59 724.766 1018.39L724.881 1016.8L725.756 1016.58C727.786 1019.04 728.15 1020.86 728.82 1024L727.659 1024C724.104 1018.07 721.622 1020.35 719.259 1011.21Z"/><path fill="#F8E2C8" d="M553.091 242.752C591.878 240.406 628.305 240.214 660.46 266.273C657.001 270.609 653.831 275.273 652.118 280.601C651.108 283.744 649.258 290.865 650.184 293.997L650.578 296.572C650.862 296.172 651.41 295.107 651.668 294.636C651.895 296.528 652.87 300.795 652.437 302.148C651.814 302.069 651.513 302.066 650.912 301.886C651.568 304.142 657.936 309.454 659.995 311.052C670.935 319.543 684.673 323.437 697.44 328.244C703.798 330.637 711.414 332.173 715.766 337.636C720.002 346.509 717.22 354.63 714.639 363.304C712.74 369.684 706.218 379.559 705.013 384.473C706.837 389.78 707.013 390.271 710.133 394.962C713.213 399.593 720.859 405.972 722.485 410.646C724.498 416.435 717.253 423.818 717.782 430.091C718.45 438.008 726.135 442.553 727.039 450.326C727.482 454.058 727.041 458.14 726.344 461.83C724.22 473.074 723.09 483.591 727.399 494.577C734.051 511.536 746.99 524.411 734.602 542.89C712.341 571.446 664.493 578.718 636.009 600.599C630.085 605.151 624.959 610.656 620.841 616.89C613.295 628.426 605.88 653.197 603.215 667.048C591.911 658.557 578.931 647.072 564.89 644.063C560.968 643.222 556.008 643.645 552.004 643.893C532.134 627.072 519.756 623.078 494.108 628.618C484.372 619.388 471.323 614.479 457.918 615.002C450.183 615.258 444.144 616.93 436.795 618.927C422.177 610.016 412.694 610.897 395.686 611.587C398.276 589.567 400.586 557.729 394.648 536.08C408.605 534.37 418.346 529.472 428.636 519.694C444.587 536.528 463.9 555.664 486.015 563.763C492.49 566.134 499.698 567.427 506.517 568.377C501.415 565.783 491.005 562.686 487.416 560.288C474.631 556.327 454.735 538.87 444.452 529.774C439.822 525.678 433.98 519.694 428.769 516.415C420.95 521.923 405.55 530.861 395.363 531.026C392.083 530.222 388.291 528.828 385.362 527.147C366.419 516.275 348.543 504.586 328.911 494.964C318.429 486.645 313.07 462.115 310.7 450.545C305.31 424.23 309.619 399.37 339.47 393.517C349.433 392.176 367.604 405.08 374.696 412.099C383.901 421.21 393.139 431.635 403.155 440.35C411.842 447.909 418.663 455.466 428.17 462.279C424.777 451.58 420.255 442.024 416.263 431.622C425.769 441.291 431.561 445.94 442.558 453.55C426.637 411.966 411.951 360.426 404.854 316.131C405.001 315.996 405.145 315.858 405.294 315.726C417.591 304.837 470.87 267.66 485.608 263.047C503.233 257.532 543.692 257.494 562.248 259.953C572.41 261.3 582.496 263.495 592.522 265.606C598.548 266.874 604.786 268.54 610.941 268.862C611.869 268.91 612 269.085 612.691 268.474C610.914 265.592 599.095 259.532 595.376 257.477C582.323 250.263 567.544 246.123 553.091 242.752Z"/><path fill="#CDA795" d="M428.636 519.694C444.587 536.528 463.9 555.664 486.015 563.763C492.49 566.134 499.698 567.427 506.517 568.377C501.415 565.783 491.005 562.686 487.416 560.288C490.404 559.724 506.145 562.69 511.053 562.826C572.364 564.529 633.499 554.181 694.372 548.15C707.557 546.844 721.513 545.026 734.602 542.89C712.341 571.446 664.493 578.718 636.009 600.599C630.085 605.151 624.959 610.656 620.841 616.89C613.295 628.426 605.88 653.197 603.215 667.048C591.911 658.557 578.931 647.072 564.89 644.063C560.968 643.222 556.008 643.645 552.004 643.893C532.134 627.072 519.756 623.078 494.108 628.618C484.372 619.388 471.323 614.479 457.918 615.002C450.183 615.258 444.144 616.93 436.795 618.927C422.177 610.016 412.694 610.897 395.686 611.587C398.276 589.567 400.586 557.729 394.648 536.08C408.605 534.37 418.346 529.472 428.636 519.694Z"/><path fill="#CDA795" d="M715.766 337.636C720.002 346.509 717.22 354.63 714.639 363.304C712.74 369.684 706.218 379.559 705.013 384.473C693.861 383.698 681.327 380.337 672.333 373.476L672.881 372.829L674.627 371.279C673.636 369.619 673.769 370.45 673.834 368.793C684.276 357.476 703.527 347.183 715.069 338.185L715.766 337.636Z"/><path d="M674.627 371.279C679.121 368.564 689.011 362.126 694.144 363.017C695.302 363.973 695.052 363.382 695.183 364.701C693.815 365.523 674.771 372.373 672.881 372.829L674.627 371.279Z"/><path fill="#F7F3EE" d="M650.578 296.572C650.862 296.172 651.41 295.107 651.668 294.636C651.895 296.528 652.87 300.795 652.437 302.148C651.814 302.069 651.513 302.066 650.912 301.886C648.966 300.105 648.967 298.62 650.578 296.572Z"/><path fill="white" d="M516.62 300.708C517.417 298.906 518.232 297.112 519.063 295.326C524.887 282.898 533.65 272.373 546.807 267.524C566.241 260.361 579.929 274.431 590.834 288.407C594.33 292.887 599.317 298.618 601.226 303.994C601.656 305.243 602.333 305.861 603.206 306.8C603.998 310.175 604.45 325.862 603.535 330.082C603.445 330.499 602.718 330.607 602.183 330.792L602.627 331.313C589.252 331.853 576.077 331.989 562.735 333.524C560.04 333.834 552.75 335.496 550.801 334.459C551.5 333.363 551.203 333.685 552.192 332.924C550.778 331.101 549.827 329.621 547.957 328.27C545.407 326.544 538.327 320.173 535.775 317.915C529.622 312.467 522.327 306.511 516.62 300.708Z"/><path d="M553.965 273.854C556.446 273.311 557.52 273.365 560.045 273.331C570.592 277.097 577.371 284.532 582.072 294.167C584.87 299.902 587.742 314.255 585.256 319.265C577.096 335.713 554.205 308.781 551.662 299.84C549.357 291.737 547.081 284.569 550.178 277.842C550.96 276.127 552.293 274.723 553.965 273.854Z"/><path fill="#5F9BDD" d="M555.631 274.986C577.331 274.368 591.244 315.473 579.395 321.647L578.688 321.505C570.095 319.709 562.191 312.104 557.489 304.973C552.752 297.789 546.348 280.753 555.631 274.986Z"/><path d="M563.277 288.206C567.248 288.996 573.068 296.086 572.296 300.862C567.683 299.944 563.149 292.832 563.277 288.206Z"/><path d="M516.62 300.708C517.417 298.906 518.232 297.112 519.063 295.326C524.887 282.898 533.65 272.373 546.807 267.524C566.241 260.361 579.929 274.431 590.834 288.407C594.33 292.887 599.317 298.618 601.226 303.994C589.701 293.36 575.753 275.639 560.179 272.301L560.045 273.331C557.52 273.365 556.446 273.311 553.965 273.854L553.814 272.721C538.108 277.411 534.274 288.01 528.803 302.099C532.369 309.194 542.737 321.266 547.957 328.27C545.407 326.544 538.327 320.173 535.775 317.915C529.622 312.467 522.327 306.511 516.62 300.708Z"/><path fill="#B9BABF" d="M553.814 272.721C555.565 272.413 558.328 272.381 560.179 272.301L560.045 273.331C557.52 273.365 556.446 273.311 553.965 273.854L553.814 272.721Z"/><path d="M552.192 332.924C575.664 327.6 577.967 326.55 602.183 330.792L602.627 331.313C589.252 331.853 576.077 331.989 562.735 333.524C560.04 333.834 552.75 335.496 550.801 334.459C551.5 333.363 551.203 333.685 552.192 332.924Z"/><path fill="#CDA795" d="M317.133 432.873C316.962 434.409 316.966 435.212 316.336 436.648L315.609 436.674C314.056 433.923 314.841 428.461 315.679 425.538C321.869 403.944 338.507 406.559 354.116 416.241C364.553 422.715 374.18 430.345 380.16 441.307C384.862 448.942 379.302 457.305 379.931 465.136C380.144 467.786 389.629 468.58 391.753 469.063C402.298 471.46 407.586 476.898 412.718 486.053C399.923 498.871 378.72 497.611 362.154 498.753C359.948 496.824 357.474 494.79 355.511 492.628C339.125 474.588 340.44 450.694 354.922 432.057C348.088 427.778 344.541 425.974 336.033 427.971C331.88 428.946 325.324 431.179 321.66 433.269L321.177 433.944C319.563 433.375 318.821 433.215 317.133 432.873Z"/><path d="M317.133 432.873C316.962 434.409 316.966 435.212 316.336 436.648L315.609 436.674C314.056 433.923 314.841 428.461 315.679 425.538C321.869 403.944 338.507 406.559 354.116 416.241C364.553 422.715 374.18 430.345 380.16 441.307C384.862 448.942 379.302 457.305 379.931 465.136C380.144 467.786 389.629 468.58 391.753 469.063C402.298 471.46 407.586 476.898 412.718 486.053C399.923 498.871 378.72 497.611 362.154 498.753C359.948 496.824 357.474 494.79 355.511 492.628C339.125 474.588 340.44 450.694 354.922 432.057C348.088 427.778 344.541 425.974 336.033 427.971C331.88 428.946 325.324 431.179 321.66 433.269C324.914 429.792 331.764 425.501 336.462 424.205C345.999 421.573 351.413 426.941 359.165 431.332C350.399 443.161 346.923 454.074 348.807 469.026C350.131 479.535 356.197 490.467 364.71 496.908C379.219 495.494 394.878 491.107 408.614 486.256C404.632 478.766 396.342 473.749 388.28 472.884C366.713 471.129 382.174 455.303 376.749 444.368C370.692 432.161 353.653 420.587 341.425 415.552C326.801 409.531 320.952 421.353 317.133 432.873Z"/><path d="M676.26 416.217C684.574 415.907 697.994 415.898 706.121 417.239C707.947 423.237 710.388 435.089 706.469 440.42C701.738 441.975 639.054 442.769 632.873 442.279C629.843 441.909 626.845 441.319 623.9 440.516C614.249 437.967 604.539 433.954 599.318 424.985C615.857 430.707 630.241 422.268 646.928 419.366C657.891 417.46 665.134 416.726 676.26 416.217Z"/><path fill="white" d="M678.393 420.225C684.204 420.114 690.195 420.204 695.975 419.96C705.709 419.549 704.182 430.759 704.598 438.138C693.733 437.987 682.866 438.012 672.001 438.214C661.509 438.461 649.763 439.098 639.377 438.834C627.68 438.014 621.699 435.463 611.207 430.497C623.923 429.848 634.554 426.46 646.827 423.759C657.845 421.333 667.198 420.596 678.393 420.225Z"/><path fill="#CDA795" d="M711.06 457.182C711.314 457.176 711.937 457.359 712.219 457.428C714.18 462.367 707.697 473.302 704.072 476.79C692.86 478.803 678.591 477.065 667.874 473.202C664.335 471.596 662.755 470.692 659.609 468.504C673.132 465.793 686.59 462.385 700.04 459.336C703.763 458.492 707.263 457.681 711.06 457.182Z"/><path d="M535.629 355.128L536.584 355.213C536.624 355.139 512.946 365.655 510.291 366.905C483.252 379.634 461.379 397.29 438.985 416.637L438.406 417.063L438.019 416.803C440.18 412.831 446.555 406.397 450.133 403.165C471.831 383.569 506.423 360.133 535.629 355.128Z"/><path d="M551.995 388.608L552.093 388.7C551.942 389.426 537.567 399.376 535.812 400.633C508.504 420.213 489.419 437.352 468.052 463.249L467.918 463.174L467.735 462.496C483.307 433.801 522.711 402.428 551.995 388.608Z"/><path d="M566.691 432.422L567.084 432.494C567.212 433.622 558.257 441.395 556.851 442.708C539.021 459.362 525.403 477.657 511.526 497.525L511.187 497.672C511.091 495.841 514.667 489.276 515.638 487.516C528.041 465.01 545.766 447.086 566.691 432.422Z"/><path fill="#F8E49F" d="M396.336 102.593C425.651 72.2379 470.737 37.5807 509.359 19.5745C501.381 39.9057 493.181 74.3786 493.504 96.0615L494.266 95.8246C500.08 93.988 505.183 91.1281 510.745 88.824C545.738 74.3255 583.419 62.3839 620.916 57.1819C617.224 61.3016 613.724 65.9912 610.71 70.4682C604.886 79.1181 585.589 115.046 585.979 124.374C586.315 125.023 586.468 125.697 587.043 125.705C592.308 125.782 602.884 124.97 607.881 124.681C617.749 124.11 670.848 124.092 676.999 126.356L677.415 127.126C676.953 127.618 676.404 128.227 675.929 128.691L622.438 184.858C620.895 183.022 618.006 179.802 616.689 177.982C607.105 167.542 595.362 159.313 582.277 153.869C575.544 141.523 549.523 140.03 537.23 140.024C502.391 140.006 468.583 151.719 438.45 168.596C372.571 205.94 323.953 260.926 287.302 326.371C265.588 367.28 247.427 409.04 236.391 454.183C233.462 466.163 230.538 477.21 230.846 489.647C212.768 505.192 194.036 520.068 173.556 532.381C176.942 519.636 179.389 506.789 182.912 493.995C188.504 473.687 194.247 453.891 199.299 433.404C171 434.443 141.957 438.97 113.421 439.082C114.87 437.069 124.844 423.057 126.173 421.949C139.041 402.671 157.293 379.645 172.144 361.952C173.222 360.186 173.6 360.207 173.646 358.445C170.637 356.297 148.002 349.382 143.432 347.966C123.099 341.665 103.577 334.405 83.5611 327.254L88.3616 323.743C110.752 307.329 133.133 293.863 157.858 281.349C164.849 277.811 177.13 271.247 184.448 268.934C184.13 267.695 183.697 266.665 182.732 265.774C158.905 243.769 133.948 221.307 111.674 197.755C116.192 197.059 120.731 196.503 125.284 196.085C150.724 193.6 193.043 190.36 218.204 192.211C219.31 192.104 219.779 191.978 220.864 191.711C221.241 189.689 219.653 177.865 219.393 175.114C216.29 142.289 219.426 110.195 224.998 77.9703L225.068 76.1828L225.705 75.6753C227.656 76.5468 229.997 78.9658 231.755 80.3789C254.663 98.7961 279.488 119.473 304.66 134.626C305.624 129.976 308.728 121.872 310.497 117.278C320.804 90.5031 340.355 58.0577 359.751 36.9432C364.04 32.4056 369.392 26.7652 374.192 22.8277C375.591 30.1184 376.343 37.551 377.605 44.7339C380.607 61.8197 387.493 87.7802 396.336 102.593Z"/><path fill="#D1AC75" d="M126.173 421.949C131.004 422.072 150.507 404.686 156.696 401.553C161.978 398.88 170.802 392.56 176.355 389.269C205.501 371.637 235.113 354.788 265.159 338.737C271.678 335.312 281.227 329.01 287.302 326.371C265.588 367.28 247.427 409.04 236.391 454.183C233.462 466.163 230.538 477.21 230.846 489.647C212.768 505.192 194.036 520.068 173.556 532.381C176.942 519.636 179.389 506.789 182.912 493.995C188.504 473.687 194.247 453.891 199.299 433.404C171 434.443 141.957 438.97 113.421 439.082C114.87 437.069 124.844 423.057 126.173 421.949Z"/><path fill="#D1AC75" d="M88.3616 323.743L88.7712 325.354C94.0377 324.07 98.1968 321.855 103.477 320.854C111.136 319.401 119.001 318.532 126.744 317.576C162.017 313.222 197.456 312.997 232.922 312.959C219.732 323.741 206.598 334.591 193.52 345.509C187.556 350.511 181.62 355.6 175.742 360.714C174.68 361.638 173.507 361.846 172.144 361.952C173.222 360.186 173.6 360.207 173.646 358.445C170.637 356.297 148.002 349.382 143.432 347.966C123.099 341.665 103.577 334.405 83.5611 327.254L88.3616 323.743Z"/><path fill="#D1AC75" d="M111.674 197.755C116.192 197.059 120.731 196.503 125.284 196.085C125.618 196.796 126.375 198.482 127.001 198.788C134.995 202.694 144.129 206.661 152.048 210.488C167.461 218.049 182.771 225.817 197.975 233.791C208.038 239.085 223.513 247.184 232.678 253.954C226.585 255.73 219.147 257.963 213.253 259.791C208.066 261.4 188.316 268.904 184.448 268.934C184.13 267.695 183.697 266.665 182.732 265.774C158.905 243.769 133.948 221.307 111.674 197.755Z"/><path fill="#D1AC75" d="M224.998 77.9703C224.912 85.4031 228.014 95.3169 229.405 102.788C235.493 135.471 245.263 165.071 258.011 195.731C248.378 194.233 237.804 194.137 228.07 193.092C225.929 192.863 220.001 192.655 218.204 192.211C219.31 192.104 219.779 191.978 220.864 191.711C221.241 189.689 219.653 177.865 219.393 175.114C216.29 142.289 219.426 110.195 224.998 77.9703Z"/><path fill="#D1AC75" d="M304.66 134.626C305.624 129.976 308.728 121.872 310.497 117.278C320.804 90.5031 340.355 58.0577 359.751 36.9432C359.1 43.1926 348.657 66.4233 345.786 75.0558C337.305 99.9017 331.561 125.599 328.655 151.691C320.638 145.074 312.101 140.471 304.66 134.626Z"/><path fill="#E7C98B" d="M616.689 177.982C626.923 159.935 650.152 138.34 668.988 128.82C671.576 127.513 673.209 127.991 675.929 128.691L622.438 184.858C620.895 183.022 618.006 179.802 616.689 177.982Z"/><path fill="#445069" d="M358.061 718.485C372.062 718.083 387.203 720.349 401.55 723.479C463.325 736.953 520.648 767.569 578.043 793.178C581.929 794.912 590.566 807.175 593.231 810.961C623.518 853.996 646.995 901.99 666.167 950.909C673.117 968.646 680.497 986.646 685.457 1005.05C678.536 1003.41 671.643 1001.66 664.782 999.783C656.946 997.969 646.917 994.92 639.134 992.692C622.636 988.127 606.264 983.117 590.036 977.669C566.974 970.015 542.072 962.095 520.67 950.503C489.507 860.153 449.544 760.253 345.107 737.923C340.927 737.029 336.859 736.468 332.631 735.92C339.922 731.388 351.223 723.588 358.061 718.485Z"/><path fill="#5A4747" d="M237.568 499.713L237.377 499.731C237.218 499.445 237.021 499.177 236.9 498.873C236.326 497.421 236.254 494.968 236.087 493.38C233.247 466.44 254.607 407.211 265.666 381.335C274.148 361.721 283.646 342.562 294.121 323.936C338.161 247.037 407.743 174.835 495.712 149.899C518.108 143.55 554.012 139.635 574.668 151.497C556.647 149.301 536.643 150.78 518.768 154.042C508.307 155.951 475.917 163.033 470.319 171.782C468.962 173.901 468.765 176.394 469.439 178.788C471.611 186.506 498.428 229.765 504.315 231.655C510.183 233.539 529.703 228.447 536.241 227.24C546.814 225.288 557.41 223.381 568.144 222.576C590.607 220.894 624.349 222.792 643.768 234.586C654.982 241.396 655.113 246.597 658.023 258.61C631.201 238.217 588.126 236.622 555.698 237.683C518.202 238.909 485.904 255.259 454.893 274.985C420.657 296.763 387.877 322.418 359.098 351.17C343.088 367.167 329.285 384.9 313.649 401.204C307.689 407.42 303.043 420.333 303.689 428.946C303.097 433.779 256.557 504.26 249.852 516.866C245.986 514.714 242.09 512.784 238.287 510.681L238.304 510.031C242.782 503.067 248.457 489.365 252.196 481.572C259.319 466.782 266.877 452.205 274.859 437.861C300.011 392.47 328.015 348.013 360.219 307.253C367.895 297.538 376.182 288.346 384.02 278.783C379.647 281.649 363.41 298.877 358.855 303.541C358.135 307.078 347.053 320.489 344.082 324.392C311.607 367.046 284.221 412.621 258.844 459.761C254.885 467.115 242.141 495.337 237.568 499.713Z"/><path fill="#3E3333" d="M238.287 510.681C248.814 508.612 293.239 432.989 303.689 428.946C303.097 433.779 256.557 504.26 249.852 516.866C245.986 514.714 242.09 512.784 238.287 510.681Z"/><path fill="#3E3333" d="M237.568 499.713C239.241 494.859 246.099 483.312 248.686 478.051C268.652 437.442 292.048 397.779 317.172 360.153C323.736 350.322 331.391 340.579 338.194 330.881C340.993 326.892 346.063 320.625 348.147 316.595C347.193 316.874 340.67 323.858 339.386 325.168C310.973 354.181 287.037 389.092 264.669 422.922C266.552 417.427 273.292 408.672 276.616 403.486C283.863 391.731 292.954 381.109 300.93 369.977C313.294 352.721 326.174 337.04 341.252 322.086C347.218 316.169 352.555 309.284 358.855 303.541C358.135 307.078 347.053 320.489 344.082 324.392C311.607 367.046 284.221 412.621 258.844 459.761C254.885 467.115 242.141 495.337 237.568 499.713Z"/><path fill="#E2935F" d="M393.74 616.918C406.675 615.253 423.405 615.212 434.81 622.383C432.549 633.381 431.222 639.262 430.221 650.712C433.095 641.712 435.775 631.803 438.786 623.009C451.694 618.345 466.667 618.123 479.211 624.062C483.676 626.197 487.879 628.841 491.736 631.943C491.108 635.517 490.742 639.406 490.58 643.047C489.058 677.26 485.767 711.355 483.757 745.538C445.293 729.489 410.381 717.714 368.35 714.564C348.601 714.103 333.468 717.033 314.152 721.147C315.128 696.733 319.538 668.531 325.479 645.04C328.636 632.554 342.029 624.256 354.139 624.335C357.727 624.358 364.076 623.877 362.689 629.042C359.549 640.737 355.779 651.928 354.693 664.015C359.459 652.119 363.012 636.464 369.814 625.243C373.491 619.177 386.757 618.043 393.74 616.918Z"/><path fill="#B17151" d="M354.693 664.015C359.459 652.119 363.012 636.464 369.814 625.243C373.491 619.177 386.757 618.043 393.74 616.918C377.989 640.858 374.705 668.949 370.426 696.757C369.611 702.055 368.477 709.414 368.35 714.564C348.601 714.103 333.468 717.033 314.152 721.147C315.128 696.733 319.538 668.531 325.479 645.04C328.636 632.554 342.029 624.256 354.139 624.335C357.727 624.358 364.076 623.877 362.689 629.042C359.549 640.737 355.779 651.928 354.693 664.015Z"/><path fill="#E2935F" d="M504.328 631.771C520.408 628.301 540.057 637.237 550.427 649.351C572.016 646.177 576.59 653.997 593.245 665.157C606.536 702.115 612.043 731.959 617.774 770.54C619.24 780.41 620.399 795.686 622.132 804.569C599.737 796.455 569.984 784.359 548.312 774.12C549.085 757.096 549.636 740.062 549.963 723.024C550.123 714.492 550.519 703.988 549.795 695.675C547.592 713.674 547.324 733.998 545.453 752.166C544.819 758.323 544.841 765.599 544.055 771.637C525.045 763.777 506.37 754.571 487.291 746.96C488.829 729.54 489.997 712.09 490.794 694.621C491.317 683.945 491.566 671.132 492.471 660.615C491.933 655.578 493.25 639.73 493.523 633.733C496.603 633.375 501.169 632.372 504.328 631.771Z"/><path fill="#B17151" d="M504.328 631.771C502.51 644.174 497.837 670.118 497.692 681.439C496.539 677.599 493.905 661.9 492.826 660.716L492.471 660.615C491.933 655.578 493.25 639.73 493.523 633.733C496.603 633.375 501.169 632.372 504.328 631.771Z"/><path fill="#D1AC75" d="M304.285 438.311C304.696 439.377 306.01 450.297 306.289 452.084C307.436 459.729 309.374 467.234 312.072 474.479C314.544 481.22 317.639 490.087 322.505 495.461C324.173 497.303 384.487 532.941 390.244 535.603C394.257 559.177 393.955 572.639 393.274 596.952C389.214 591.529 385.087 586.259 381.045 580.787C377.482 592.491 376.191 604.401 372.193 616.393C369.711 617.837 368.176 618.753 365.829 620.501C361.292 619.736 359.907 619.557 355.273 619.527C354.031 613.618 353.32 607.553 352.516 601.563C346.806 607.198 342.747 614.522 337.571 620.393C330.899 627.96 324.809 636.26 318.309 643.823C315.357 646.779 312.385 650.516 309.677 653.756C308.126 647.214 306.978 636.041 306.127 629.046C303.735 610.705 302.064 592.277 301.121 573.805C296.046 578.918 288.704 588.027 283.887 593.763C276.363 602.723 268.253 611.836 260.887 620.823C261.105 602.073 261.553 583.327 262.234 564.588C262.709 550.885 262.931 537.227 265.553 523.733C261.584 521.139 258.533 519.742 254.223 517.775C257.388 513.447 260.356 508.871 263.143 504.293C276.611 482.168 290.923 460.487 304.285 438.311Z"/><path fill="#F8E2C8" d="M651.814 236.76C647.524 233.134 643.048 229.914 637.896 227.619C609.923 215.161 565.416 218.401 535.71 223.258C527.617 224.582 519.645 227.406 511.621 228.533C509.608 228.816 506.691 229.018 504.866 227.93C499.076 224.477 474.444 184.888 472.818 178.599C472.359 176.822 472.438 175.107 473.496 173.534C477.857 167.05 506.613 160.1 515.299 158.359C533.484 154.714 565.067 151.507 582.165 157.794C584.345 158.596 586.26 159.922 588.183 161.2C595.64 165.66 606.075 171.999 611.776 178.319C613.466 179.517 619.321 186.376 620.796 188.161C632.775 202.662 645.435 218.922 651.814 236.76Z"/><path d="M588.183 161.2C595.64 165.66 606.075 171.999 611.776 178.319C611.212 178.664 611.572 178.515 610.633 178.574L609.291 177.144C609.554 178.751 609.798 178.485 609.364 179.705C608.303 179.221 604.759 175.437 603.485 174.254L601.214 174.25C601.316 175.058 609.965 180.42 611.586 189.947C613.431 200.786 608.443 202.693 608.45 207.682C606.918 210.164 601.643 210.566 598.48 212.994C592.562 211.648 587.513 212.087 581.606 211.203C578.591 210.752 579.13 208.801 577.536 206.764C575.273 203.874 571.759 201.048 569.98 197.781C566.559 191.19 564.621 181.145 566.639 173.812C569.841 162.181 576.93 161.893 586.421 164.822C586.92 163.525 587.539 162.425 588.183 161.2Z"/><path fill="white" d="M588.183 161.2C595.64 165.66 606.075 171.999 611.776 178.319C611.212 178.664 611.572 178.515 610.633 178.574L609.291 177.144C609.554 178.751 609.798 178.485 609.364 179.705C608.303 179.221 604.759 175.437 603.485 174.254C599.455 170.315 591.678 166.785 586.421 164.822C586.92 163.525 587.539 162.425 588.183 161.2Z"/><path fill="white" d="M588.884 176.279L589.502 175.998C604.029 169.559 614.403 201.803 599.628 207.03C595.026 208.658 586.957 207.074 582.856 204.85C565.06 196.795 565.911 159.613 590.405 170.011C558.802 176.346 581.369 207.895 594.055 203.88C595.353 203.455 596.619 202.939 597.843 202.335C599.077 201.228 600.151 199.775 601.195 198.47C604.574 187.691 599.022 179.929 588.884 176.279Z"/><path fill="#F7F3EE" d="M601.195 198.47L603.013 198.753C603.363 201.422 600.954 202.446 598.814 203.423C598.487 203.078 598.099 202.716 597.843 202.335C599.077 201.228 600.151 199.775 601.195 198.47Z"/><path fill="white" d="M587.997 178.969C593.831 180.105 601.741 187.19 597.633 193.81C597.196 194.515 595.056 194.39 594.16 194.427L593.606 194.702C585.571 193.023 579.787 183.953 587.997 178.969Z"/><path fill="#445069" d="M585.138 176.362L586.102 176.569C584.349 179.114 583.27 178.943 580.537 183.546C580.289 187.8 580.077 189.231 581.999 193.064C576.495 187.952 579.814 180.148 585.138 176.362Z"/><path d="M507.285 208.521C515.309 208.725 519.278 218.253 510.139 221.586C501.553 221.559 497.752 212.655 507.285 208.521Z"/><path fill="white" d="M506.929 212.324C507.985 211.743 509.276 211.792 510.284 212.452C511.293 213.112 511.854 214.275 511.743 215.476C511.633 216.676 510.868 217.717 509.756 218.182C508.159 218.849 506.319 218.151 505.567 216.592C504.815 215.034 505.413 213.159 506.929 212.324Z"/><path d="M482.513 171.085C491.568 170.083 494.893 178.734 486.752 181.519C477.955 181.701 474.389 175.679 482.513 171.085Z"/><path fill="white" d="M485.093 173.96C485.944 174.257 486.462 174.541 487.272 174.934C488.22 176.594 488.117 175.766 487.858 177.454C486.884 178.959 486.408 178.961 484.717 179.553C482.774 178.54 481.851 178.371 481.801 176.05C482.858 174.559 483.368 174.55 485.093 173.96Z"/><path d="M567.371 203.891C573.801 203.708 578.245 209.238 572.238 213.765C564.695 214.465 561.407 209.571 567.371 203.891Z"/><path fill="#F8E49F" d="M336.988 381.408C350.329 365.54 364.816 350.673 380.332 336.926C386.839 331.072 394.368 324.3 401.465 319.241C408.858 360.403 419.152 400.991 432.27 440.701C429.056 437.676 422.608 431.964 419.862 428.943C414.762 424.664 410.203 419.154 405.045 414.494C406.658 424.273 412.556 438.156 416.401 447.389C397.359 428.56 373.484 402.717 349.977 390.289C341.928 386.034 336.312 388.752 328.325 391.685C330.373 388.978 334.628 383.444 336.988 381.408Z"/><path fill="#D1AC75" d="M347.11 381.244C350.501 377.061 353.496 372.082 356.409 367.514C358.47 371.265 358.68 372.143 362.055 374.761C362.541 377.87 363.101 381.023 363.324 384.158C365.533 378.606 367.203 374.093 368.978 368.36C368.431 377.697 369.73 386.518 372.393 395.495C373.001 390.603 373.039 386.367 373.43 381.548C374.668 388.686 374.381 390.902 377 398.162L376.967 379.17C382.756 387.506 387.207 398.021 394.016 405.023C393.916 397.669 393.854 390.802 394.1 383.458C397.13 389.809 399.746 395.146 403.065 401.169C406.413 407.246 418.987 423.508 419.862 428.943C414.762 424.664 410.203 419.154 405.045 414.494C406.658 424.273 412.556 438.156 416.401 447.389C397.359 428.56 373.484 402.717 349.977 390.289C341.928 386.034 336.312 388.752 328.325 391.685C330.373 388.978 334.628 383.444 336.988 381.408C342.291 381.792 347.16 372.576 349.457 371.969C349.508 375.553 348.397 377.978 347.11 381.244Z"/><path fill="#5A4747" d="M232.424 535.042C233.426 535.79 235.269 537.086 236.111 537.88C232.038 557.364 222.742 574.15 211.741 590.573C209.555 593.836 200.327 605.747 199.716 607.945C203.086 605.141 204.811 603.748 207.725 600.504C211.613 594.862 216.561 589.974 220.836 583.14C223.915 578.217 230.274 563.431 233.257 561.217L233.787 558.555C236.23 556.239 243.516 553.368 245.367 557.392C243.189 567.192 241.554 574.893 238.362 584.562C230.244 609.146 212.31 633.76 191.179 648.749C182.819 654.679 171.178 660.632 161.897 665.229C193.621 614.599 163.021 582.49 226.008 539.633C228.198 537.995 230.142 536.562 232.424 535.042Z"/><path fill="#3E3333" d="M232.424 535.042C233.426 535.79 235.269 537.086 236.111 537.88C232.038 557.364 222.742 574.15 211.741 590.573C209.555 593.836 200.327 605.747 199.716 607.945C198.882 609.068 196.109 611.53 194.956 612.613C199.904 588.443 213.958 564.781 225.329 543.168C226.208 541.498 226.344 541.369 226.008 539.633C228.198 537.995 230.142 536.562 232.424 535.042Z"/><path fill="#3E3333" d="M233.257 561.217C228.871 573.884 223.775 588.121 213.307 597.123C211.714 598.492 209.814 600.141 207.725 600.504C211.613 594.862 216.561 589.974 220.836 583.14C223.915 578.217 230.274 563.431 233.257 561.217Z"/><path fill="#3E3333" d="M249.052 544.445C252.987 546.03 254.576 546.334 258.623 546.736C258.125 552.753 257.806 558.538 257.603 564.576C256.851 586.999 255.431 609.472 255.824 631.912C265.887 622.554 275.524 610.391 284.623 600.03C279.679 624.724 264.436 642.133 247.163 659.059C241.2 664.947 232.945 671.11 226.336 676.401C221.364 680.382 214.206 686.757 209.009 689.863C210.166 681.745 211.409 673.73 212.117 665.556C213.001 655.342 213.212 644.919 214.554 634.772C236.084 608.072 249.622 579.385 249.052 544.445Z"/><path fill="#E2935F" d="M607.727 670.789C616.779 672.32 624.182 676.232 630.078 683.262C634.76 688.845 639.938 699.777 642.128 706.438C650.683 732.46 663.581 790.848 661.231 816.452C657.282 815.31 653.647 814.182 649.811 812.69C646.694 811.477 644.006 809.958 640.745 809.256C642.218 801.373 639.353 786.835 638.081 778.433C633.205 746.226 625.54 698.088 607.727 670.789Z"/><path fill="#B17151" d="M214.48 823.656C224.78 798.793 256.45 762.296 279.112 746.198C285.509 741.653 311.778 740.025 320.917 739.961C315.503 744.766 310.49 749.988 305.294 755.033C297.979 763.166 289.865 772.998 282.513 780.758L270.108 783.703C248.45 789.992 228.215 805.988 214.48 823.656Z"/><path fill="#E2935F" d="M270.108 783.703C271.204 780.086 297.764 759.317 302.102 756.146C303.701 754.977 303.799 754.74 305.294 755.033C297.979 763.166 289.865 772.998 282.513 780.758L270.108 783.703Z"/><path fill="#E7C98B" d="M624.587 187.146C626.838 188.411 629.191 189.697 631.284 191.209C649.339 204.254 665.847 218.842 683.955 231.863C686.765 233.974 689.995 236.281 692.551 238.645C681.504 241.332 670.432 243.914 659.336 246.391L656.375 237.924C650.566 218.478 637.37 202.33 624.587 187.146Z"/><path fill="#D1AC75" d="M683.955 231.863C686.765 233.974 689.995 236.281 692.551 238.645C681.504 241.332 670.432 243.914 659.336 246.391L656.375 237.924C665.719 234.754 674.697 234.258 683.955 231.863Z"/><defs><linearGradient id="gradient_0" gradientUnits="userSpaceOnUse" x1="553.78711" y1="275.42319" x2="547.74561" y2="242.26859"><stop offset="0" stop-color="#DBC267"/><stop offset="1" stop-color="#DAA77C"/></linearGradient></defs><path fill="url(#gradient_0)" d="M536.886 243.636C554.76 243.304 592.778 257.968 608.809 267.327C603.653 266.437 597.952 264.553 592.782 263.263C585.991 261.569 579.217 260.049 572.39 258.513C547.139 253.882 518.634 253.64 493.498 258.894C506.806 251.759 522.073 246.722 536.886 243.636Z"/><defs><linearGradient id="gradient_1" gradientUnits="userSpaceOnUse" x1="722.23688" y1="921.34839" x2="702.33539" y2="928.12701"><stop offset="0" stop-color="#3D455E"/><stop offset="1" stop-color="#102B64"/></linearGradient></defs><path fill="url(#gradient_1)" d="M672.749 840.385C679.533 847.084 688.309 863.361 693.261 871.823C697.396 878.888 702.34 886.784 706.182 893.964C725.867 931.206 741.476 970.464 752.738 1011.05C750.624 1009.86 749.423 1008.86 747.529 1007.38C743.302 995.673 740.9 982.105 736.325 970.621C720.502 930.895 703.392 891.251 681.083 854.69C679.042 851.345 673.602 843.596 672.749 840.385Z"/><path fill="#3E3333" d="M232.73 512.904C237.32 515.257 241.948 517.533 246.614 519.732C251.919 521.584 256.555 524.094 261.572 526.014C260.787 530.027 259.555 538.067 259.342 542.177C254.195 541.547 249.243 541.302 245.045 537.841C231.383 530.247 229.152 528.442 232.73 512.904Z"/><path fill="#5A4747" d="M232.73 512.904C237.32 515.257 241.948 517.533 246.614 519.732C246.077 521.822 245.482 523.905 245.328 526.063C245.077 529.588 246.227 534.623 245.045 537.841C231.383 530.247 229.152 528.442 232.73 512.904Z"/><path fill="#445069" d="M351.034 718.684L351.862 718.86C351.787 718.964 329.03 733.295 325.994 735.527C317.868 734.54 302.644 736.137 294.555 737.62L293.352 737.348L293.616 736.721C313.078 723.519 327.967 721.819 351.034 718.684Z"/><path fill="#D1AC75" d="M383.377 591.261C385.7 593.737 389.467 599.299 392.398 602.618C392.087 605.926 391.809 609.237 391.563 612.55L386.387 613.481C383.898 614.061 380.212 614.561 377.615 614.979C379.6 607.288 381.32 598.643 383.377 591.261Z"/><path fill="#3E3333" d="M238.249 538.647C241.085 540.279 244.115 541.757 247.044 543.242C246.637 548.592 246.268 552.056 245.367 557.392C243.516 553.368 236.23 556.239 233.787 558.555C234.288 554.821 237.274 543.948 238.249 538.647Z"/><path fill="white" d="M611.94 710.426C614.722 711.943 615.889 712.589 618.437 714.526C622 716.764 621.697 718.036 622.528 721.925C620.487 720.67 618.145 719.01 615.737 719.006L615.914 719.743C618.109 722.076 620.527 723.081 623.373 724.592C624.111 726.762 624.473 728.8 624.941 731.039C621.249 728.181 619.935 727.709 615.663 726.33C614.467 721.018 613.227 715.717 611.94 710.426Z"/><path fill="#5F9BDD" d="M656.982 302.401C658.955 303.14 657.99 303.107 659.979 302.56C661.603 301.013 661.806 299.943 661.817 297.833C661.844 292.521 660.235 290.948 656.129 288.253C656.369 286.842 656.422 286.946 657.464 285.924C659.471 285.688 658.503 285.573 660.455 286.429C664.879 291.463 664.768 303.501 663.216 309.789C660.777 307.842 657.117 305.111 655.525 302.466L656.982 302.401Z"/><path fill="white" d="M639.836 826.566C638.321 824.509 637.917 824.674 637.765 822.557L638.385 822.073C643.135 822.682 650.326 834.913 652.765 839.284C651.639 839.092 646.906 835.984 645.482 835.194C644.005 833.095 642.973 831.831 641.988 829.437L642.27 829.032C644.053 829.846 644.145 829.907 645.709 831.094C646.032 828.319 641.945 827.367 639.836 826.566Z"/><path fill="white" d="M657.957 273.52C659.194 276.052 661.28 279.422 660.707 282.023C659.809 282.467 659.19 282.722 658.21 282.926C653.295 283.948 652.227 290.542 651.668 294.636C651.41 295.107 650.862 296.172 650.578 296.572L650.184 293.997C652.418 286.734 654.095 280.176 657.957 273.52Z"/><path fill="white" d="M615.972 727.824C620.498 730.132 622.431 731.089 625.898 734.776C626.405 736.877 626.794 739.555 627.171 741.725C621.815 736.482 616.837 735.662 615.972 727.824Z"/><path fill="white" d="M624.722 783.121C627.342 784.636 635.256 787.908 635.664 790.732L634.483 791.413L634.406 792.299L636.292 794.047L635.847 795.009C633.443 794.242 629.886 791.964 627.963 790.303C624.798 787.568 624.979 787.174 624.722 783.121Z"/><path fill="white" d="M673.825 889.037C675.707 890.487 677.513 892.187 679.74 892.767L680.933 892.339C682.066 894.059 682.23 894.212 682.763 896.158C681.713 895.46 679.495 894.405 678.188 894.504C683.131 901.062 683.773 896.385 687.805 906.659C685.622 904.228 684.145 903.376 681.669 901.334C677.413 897.824 676.043 893.931 673.825 889.037Z"/><path fill="white" d="M622.575 767.859C626.428 769.88 629.558 771.676 633.272 773.948L634.169 780.224C630.435 776.807 627.883 775.62 623.445 773.326C623.108 771.647 622.844 769.582 622.575 767.859Z"/><path fill="white" d="M617.295 735.885C621.199 738.546 623.979 741.051 627.444 744.237L629 749.677C622.556 745.121 618.13 744.446 617.295 735.885Z"/><path fill="white" d="M625.707 791.619C631.116 794.298 636.81 795.668 637.288 802.274C633.753 800.78 630.084 798.956 626.598 797.296C626.194 795.526 625.96 793.438 625.707 791.619Z"/><path fill="white" d="M620.199 752.787C622.115 754.336 627.852 757.665 630.337 759.273C630.867 761.016 631.308 763.053 631.744 764.844C628.085 763.59 628.383 761.139 622.065 759.666L621.443 759.527C620.442 758.107 620.384 754.7 620.199 752.787Z"/><path fill="white" d="M609.493 701.445C615.853 704.763 618.747 706.61 620.44 713.85C617.359 711.901 615.97 710.975 612.599 709.562C610.735 708.359 610.017 703.762 609.493 701.445Z"/><path fill="white" d="M618.568 743.416C622.786 749.418 629.454 748.966 630.134 757.132C625.91 754.708 624.666 753.192 619.919 751.318L618.568 743.416Z"/><path fill="white" d="M626.782 799.575C630.337 800.933 637.137 804.978 638.372 808.494C633.979 807.829 631.398 807.248 627.09 806.095C627.393 803.404 627.141 802.199 626.782 799.575Z"/><path fill="white" d="M623.497 775.749C627.23 777.358 630.774 779.372 634.067 781.756L634.926 786.789C630.564 784.329 629.655 783.346 624.727 781.086L623.497 775.749Z"/><path fill="#5F9BDD" d="M655.525 302.466C655.433 299.827 652.445 291.893 656.326 290.853C661.012 293.134 660.025 298.927 656.982 302.401L655.525 302.466Z"/><path fill="white" d="M606.885 691.496C608.308 692.384 610.218 693.301 610.882 694.718L609.132 695.974L609.326 696.422C614.829 695.85 616.099 697.879 617.523 702.891C617.9 704.083 617.868 704.014 617.78 705.27C613.898 701.373 614.266 701.707 609.482 699.491C608.33 697.761 607.465 693.682 606.885 691.496Z"/><path fill="white" d="M716.574 999.744C721.781 1005.32 724.891 1007.75 726.651 1015.48C725.042 1014.41 721.787 1011.04 720.233 1009.51C717.593 1006.68 717.345 1003.54 716.574 999.744Z"/><path fill="white" d="M683.299 909.06C686.451 911.593 688.509 913.926 691.35 916.414C692.909 917.836 695.256 923.425 696.192 925.485C689.465 918.372 687.093 919.826 683.299 909.06Z"/><path fill="white" d="M621.61 761.276C623.47 761.641 627.654 763.973 629.217 765.179C632.217 767.493 632.219 768.422 632.687 771.925C628.787 768.666 626.821 767.953 622.212 766.104L621.61 761.276Z"/><path fill="white" d="M650.47 844.582C652.632 845.653 654.78 846.751 656.915 847.876C658.831 849.641 659.292 850.671 660.448 853.068L659.729 854.208C657.773 853.655 657.094 852.611 654.257 852.133C654.013 851.398 654.145 851.647 654.396 850.661C652.366 849.757 651.279 846.57 650.47 844.582Z"/><path fill="#3E3333" d="M654.396 850.661C656.291 851.434 658.543 852.43 660.448 853.068L659.729 854.208C657.773 853.655 657.094 852.611 654.257 852.133C654.013 851.398 654.145 851.647 654.396 850.661Z"/><path fill="white" d="M665.395 872.803C671.723 875.133 674.356 877.903 677.174 883.643C675.796 883.068 670.306 879.581 668.234 878.462C667.075 876.581 666.316 874.802 665.395 872.803Z"/><path fill="white" d="M604.256 683.85C607.219 685.592 611.251 689.179 614.011 691.477C614.774 693.204 615.071 694.716 615.522 696.538C613.078 693.796 609.127 690.857 605.929 689.044C605.388 687.678 604.725 685.324 604.256 683.85Z"/><path fill="white" d="M711.419 981.378C716.024 984.795 720.004 991.047 721.402 996.784C716.699 992.799 712.895 987.409 711.419 981.378Z"/><path fill="white" d="M695.208 937.417C701.182 941.215 703.364 943.15 705.624 949.675C704.088 948.74 700.325 945.259 697.515 943.419C696.459 941.218 695.978 939.706 695.208 937.417Z"/><path fill="white" d="M706.917 962.215C703.227 959.207 703.035 958.682 701.445 954.167C706.231 957.412 711.228 960.01 711.427 966.545C709.898 965.338 708.308 963.622 706.917 962.215Z"/><path fill="white" d="M669.236 880.536C675.437 884.288 678.561 885.392 680.933 892.339C678.666 890.693 676.361 889.102 674.018 887.566C672.25 886.187 670.462 882.621 669.236 880.536Z"/><path fill="white" d="M707.952 971.477C713.909 975.654 716.225 979.445 718.154 986.154C715.082 983.662 708.946 975.778 707.952 971.477Z"/><path fill="#E2935F" d="M348.8 612.912C349.766 613.932 350.002 618.396 350.181 620.033C347.681 620.569 345.188 621.131 342.7 621.72L342.36 621.747L342.186 621.228C344.188 618.407 346.589 615.599 348.8 612.912Z"/><path fill="white" d="M688.09 920.703C692.568 922.506 697.104 928.091 698.699 932.565C692.392 928.321 690.792 927.648 688.09 920.703Z"/><path fill="white" d="M601.553 675.852C606.836 679.082 610.096 682.587 612.59 688.114L611.083 686.91C608.086 684.513 607.217 684.023 603.865 682.179L601.553 675.852Z"/><path fill="white" d="M657.739 858.131C660.606 860.035 662.033 860.716 665.371 861.764L668.72 867.723C666.07 866.561 663.385 865.195 660.776 863.921C659.656 862.105 658.697 860.049 657.739 858.131Z"/><path fill="white" d="M630.215 811.259C632.199 811.708 634.885 812.887 635.78 814.671C637.105 817.314 638.869 818.242 640.424 820.622C634.525 821.539 632.975 815.748 630.215 811.259Z"/><path fill="white" d="M698.434 945.901C703.39 949.537 706.099 951.306 708.391 957.225C702.902 955.268 700.239 951.064 698.434 945.901Z"/><path fill="white" d="M706.932 968.682C706.382 967.379 704.621 963.947 705.117 962.781L706.339 963.489C707.656 964.839 709.039 966.32 710.438 967.567C712.916 969.727 713.552 972.331 714.715 975.391C711.754 972.483 710.28 971.067 706.932 968.682Z"/><path fill="white" d="M714.564 992.265C717.953 993.8 723.022 1001.62 723.829 1005.16C718.953 1001.7 716.234 997.831 714.564 992.265Z"/><path fill="white" d="M679.488 901.207C685.106 905.673 688.314 907.466 691.163 914.263C689.833 913.716 685.444 909.234 684.061 907.916C681.617 905.789 680.908 904.115 679.488 901.207Z"/><path fill="white" d="M691.808 929.774C692.906 930.292 698.057 933.928 699.418 934.852C700.307 936.59 701.169 938.39 702.034 940.145C697.9 938.297 693.273 934.138 691.808 929.774Z"/><path fill="white" d="M654.257 852.133C657.094 852.611 657.773 853.655 659.729 854.208C662.459 855.815 663.278 857.451 664.833 860.243C662.468 859.283 660.121 858.025 657.548 856.982C656.501 855.634 655.235 853.599 654.257 852.133Z"/><path fill="white" d="M646.204 837.231C648.664 838.261 650.678 839.989 653.035 841.323C655.203 843.335 655.446 843.678 656.876 846.273C654.726 845.006 652.496 843.35 650.058 843.947C648.553 841.949 647.379 839.468 646.204 837.231Z"/><path fill="white" d="M662.101 866.769C666.756 867.549 670.191 870.74 672.476 874.674C667.968 872.13 664.91 871.032 662.101 866.769Z"/><path fill="white" d="M599.25 670.336C602.084 671.541 605.504 674.625 606.883 677.461C602.321 676.145 601.905 674.422 599.25 670.336Z"/></svg>